<?xml version="1.0" encoding="UTF-8"?>
<svg width="177px" height="65px" viewBox="0 0 177 65" version="1.1" xmlns="http://www.w3.org/2000/svg" xmlns:xlink="http://www.w3.org/1999/xlink">
    <!-- Generator: Sketch 62 (91390) - https://sketch.com -->
    <title>LOGO SPACING</title>
    <desc>Created with Sketch.</desc>
    <g id="Page-1" stroke="none" stroke-width="1" fill="none" fill-rule="evenodd">
        <g id="Lemon" transform="translate(-399.000000, -563.000000)">
            <g id="LOGO-SPACING" transform="translate(399.000000, 563.000000)">
                <polyline id="Stroke-261" stroke="#9C9C9C" stroke-width="0.513" points="175.8136 62.5544 175.8136 63.8694 174.4976 63.8694"></polyline>
                <line x1="171.8414" y1="63.8699" x2="3.1434" y2="63.8699" id="Stroke-263" stroke="#9C9C9C" stroke-width="0.513" stroke-dasharray="2.657,2.657"></line>
                <polyline id="Stroke-265" stroke="#9C9C9C" stroke-width="0.513" points="1.8155 63.8699 0.4995 63.8699 0.4995 62.5549"></polyline>
                <line x1="0.5" y1="59.9136" x2="0.5" y2="3.1356" id="Stroke-267" stroke="#9C9C9C" stroke-width="0.513" stroke-dasharray="2.641,2.641"></line>
                <polyline id="Stroke-269" stroke="#9C9C9C" stroke-width="0.513" points="0.5 1.8156 0.5 0.4996 1.816 0.4996"></polyline>
                <line x1="4.4721" y1="0.5" x2="173.1701" y2="0.5" id="Stroke-271" stroke="#9C9C9C" stroke-width="0.513" stroke-dasharray="2.657,2.657"></line>
                <polyline id="Stroke-273" stroke="#9C9C9C" stroke-width="0.513" points="174.498 0.5 175.814 0.5 175.814 1.816"></polyline>
                <line x1="175.8136" y1="4.4564" x2="175.8136" y2="61.2344" id="Stroke-275" stroke="#9C9C9C" stroke-width="0.513" stroke-dasharray="2.641,2.641"></line>
                <polyline id="Stroke-277" stroke="#9C9C9C" stroke-width="0.428" points="159.7663 15.192 159.7663 16.547 161.1213 16.547"></polyline>
                <line x1="163.7889" y1="16.5473" x2="173.1249" y2="16.5473" id="Stroke-279" stroke="#9C9C9C" stroke-width="0.428" stroke-dasharray="2.667,2.667"></line>
                <polyline id="Stroke-281" stroke="#9C9C9C" stroke-width="0.428" points="174.4582 16.5473 175.8132 16.5473 175.8132 15.1923"></polyline>
                <line x1="175.8136" y1="12.5247" x2="175.8136" y2="3.1887" id="Stroke-283" stroke="#9C9C9C" stroke-width="0.428" stroke-dasharray="2.667,2.667"></line>
                <polyline id="Stroke-285" stroke="#9C9C9C" stroke-width="0.428" points="175.8136 1.8553 175.8136 0.5003 174.4586 0.5003"></polyline>
                <line x1="171.791" y1="0.5" x2="162.455" y2="0.5" id="Stroke-287" stroke="#9C9C9C" stroke-width="0.428" stroke-dasharray="2.667,2.667"></line>
                <polyline id="Stroke-289" stroke="#9C9C9C" stroke-width="0.428" points="161.1215 0.5 159.7665 0.5 159.7665 1.855"></polyline>
                <line x1="159.7663" y1="4.5226" x2="159.7663" y2="13.8586" id="Stroke-291" stroke="#9C9C9C" stroke-width="0.428" stroke-dasharray="2.667,2.667"></line>
                <polyline id="Stroke-293" stroke="#9C9C9C" stroke-width="0.532" points="16.5472 47.0051 16.5472 48.3351 17.8772 48.3351"></polyline>
                <line x1="20.5293" y1="48.3352" x2="157.1103" y2="48.3352" id="Stroke-295" stroke="#9C9C9C" stroke-width="0.532" stroke-dasharray="2.652,2.652"></line>
                <polyline id="Stroke-297" stroke="#9C9C9C" stroke-width="0.532" points="158.4362 48.3352 159.7662 48.3352 159.7662 47.0052"></polyline>
                <line x1="159.7663" y1="44.3572" x2="159.7663" y2="19.2012" id="Stroke-299" stroke="#9C9C9C" stroke-width="0.532" stroke-dasharray="2.648,2.648"></line>
                <polyline id="Stroke-301" stroke="#9C9C9C" stroke-width="0.532" points="159.7663 17.8773 159.7663 16.5473 158.4363 16.5473"></polyline>
                <line x1="155.7841" y1="16.5473" x2="19.2031" y2="16.5473" id="Stroke-303" stroke="#9C9C9C" stroke-width="0.532" stroke-dasharray="2.652,2.652"></line>
                <polyline id="Stroke-305" stroke="#9C9C9C" stroke-width="0.532" points="17.8773 16.5473 16.5473 16.5473 16.5473 17.8773"></polyline>
                <line x1="16.5472" y1="20.5253" x2="16.5472" y2="45.6813" id="Stroke-307" stroke="#9C9C9C" stroke-width="0.532" stroke-dasharray="2.648,2.648"></line>
                <polygon id="Fill-309" fill="#005A4A" points="16.5472 17.0364 25.4522 17.0364 25.4522 39.9154 37.4432 39.9154 37.4432 48.3184 16.5472 48.3184"></polygon>
                <path d="M47.8441,34.1404 L55.3381,34.1404 C55.1171,31.5834 53.7071,30.0404 51.6791,30.0404 C49.6961,30.0404 48.1531,31.5394 47.8441,34.1404 M52.3841,48.3354 C44.8461,48.3354 39.9531,43.6184 39.9531,36.3894 C39.9531,29.9084 44.6701,24.4424 51.7231,24.4424 C59.3061,24.4424 62.8761,29.9084 62.8761,36.4764 C62.8761,36.9614 62.8321,37.9314 62.7441,38.3724 L47.8001,38.3724 C48.5931,40.9294 50.9301,42.2074 54.1041,42.2074 C57.1021,42.2074 59.7021,41.4584 62.3911,40.3124 L62.5241,40.4004 L60.4951,46.7034 C58.0721,47.7624 55.8671,48.3354 52.3841,48.3354" id="Fill-311" fill="#005A4A"></path>
                <path d="M74.9085,32.7742 L74.9085,48.3182 L66.5775,48.3182 L66.5775,25.6322 L74.6445,24.7952 L74.6445,28.7622 C76.9365,25.7652 79.2285,24.5302 82.2265,24.5302 C85.3125,24.5302 87.6925,26.0292 88.7955,28.8952 C91.2195,25.8092 93.5555,24.5302 96.6855,24.5302 C101.1375,24.5302 104.1795,27.5722 104.1795,33.2142 L104.1795,48.3182 L95.8475,48.3182 L95.8475,35.2872 C95.8475,33.0832 94.8785,31.7602 92.8505,31.7602 C91.7485,31.7602 90.8225,32.0242 89.5445,32.7742 L89.5445,48.3182 L81.2135,48.3182 L81.2135,35.2872 C81.2135,33.0832 80.2425,31.7602 78.2155,31.7602 C77.1125,31.7602 76.1875,32.0242 74.9085,32.7742" id="Fill-313" fill="#005A4A"></path>
                <path d="M115.5062,36.2836 C115.5062,39.2376 117.4892,41.2646 120.0912,41.2646 C122.7352,41.2646 124.6752,39.1486 124.6752,36.2396 C124.6752,33.3296 122.6922,31.2586 120.0912,31.2586 C117.4452,31.2586 115.5062,33.4186 115.5062,36.2836 M120.0912,24.2486 C127.8942,24.2486 132.6542,29.9796 132.6542,36.2396 C132.6542,42.5436 127.7612,48.3186 120.0912,48.3186 C112.2882,48.3186 107.5712,42.5436 107.5712,36.2836 C107.5712,30.0236 112.4202,24.2486 120.0912,24.2486" id="Fill-315" fill="#005A4A"></path>
                <path d="M144.598,32.9944 L144.598,48.3184 L136.267,48.3184 L136.267,25.6324 L144.334,24.7954 L144.334,29.1154 C146.758,25.8524 149.095,24.5304 152.269,24.5304 C156.721,24.5304 159.719,27.5724 159.719,33.2144 L159.719,48.3184 L151.387,48.3184 L151.387,35.2864 C151.387,33.0824 150.373,31.7604 148.301,31.7604 C147.067,31.7604 146.053,32.0684 144.598,32.9944" id="Fill-317" fill="#005A4A"></path>
            </g>
        </g>
    </g>
</svg>