<?xml version="1.0" encoding="UTF-8"?>
<svg width="176px" height="94px" viewBox="0 0 176 94" version="1.1" xmlns="http://www.w3.org/2000/svg" xmlns:xlink="http://www.w3.org/1999/xlink">
    <!-- Generator: Sketch 62 (91390) - https://sketch.com -->
    <title>LOGO 02</title>
    <desc>Created with Sketch.</desc>
    <g id="Page-1" stroke="none" stroke-width="1" fill="none" fill-rule="evenodd">
        <g id="Lemon" transform="translate(-105.000000, -652.000000)">
            <g id="LOGO-02" transform="translate(105.000000, 652.000000)">
                <polygon id="Fill-345" fill="#EDD3DA" points="-1.42108547e-13 93.894 175.396 93.894 175.396 1.42108547e-14 -1.42108547e-13 1.42108547e-14"></polygon>
                <path d="M82.3683,72.2193 C80.2283,70.0613 80.2283,66.5523 82.3683,64.4113 C84.5263,62.2543 88.0353,62.2543 90.1753,64.4113 L82.3683,72.2193 Z M92.6843,61.9023 L92.7023,61.8853 C89.1583,58.3413 83.4033,58.3413 79.8593,61.8853 C76.3153,65.4293 76.3153,71.1833 79.8593,74.7273 L79.8773,74.7103 C83.4033,78.2543 89.1403,78.2543 92.6843,74.7103 C96.2283,71.1833 96.2283,65.4293 92.6843,61.9023 L92.6843,61.9023 Z" id="Fill-347" fill="#005A4A"></path>
                <path d="M131.422,76.2909 C131.422,76.3179 131.422,76.3419 131.42,76.3659 C131.424,76.3199 131.424,76.2739 131.422,76.2279 L131.422,76.2909 Z" id="Fill-348" fill="#005A4A"></path>
                <path d="M130.5574,77.2767 C130.5424,77.2787 130.5284,77.2787 130.5134,77.2787 C130.7174,77.2597 130.9114,77.1847 131.0684,77.0607 C130.9324,77.1777 130.7604,77.2547 130.5574,77.2767" id="Fill-349" fill="#005A4A"></path>
                <path d="M114.5121,59.318 C114.4711,59.316 114.4271,59.316 114.3861,59.32 C114.4051,59.318 114.4271,59.318 114.4491,59.318 L114.5121,59.318 Z" id="Fill-350" fill="#005A4A"></path>
                <path d="M113.461,60.2263 C113.461,60.2263 113.461,60.1973 113.463,60.1823 C113.485,59.9793 113.563,59.8073 113.679,59.6713 C113.555,59.8293 113.48,60.0233 113.461,60.2263" id="Fill-351" fill="#005A4A"></path>
                <path d="M131.4196,76.3733 C131.4006,76.5763 131.3256,76.7703 131.2016,76.9283 C131.3176,76.7923 131.3956,76.6203 131.4176,76.4173 C131.4176,76.4023 131.4196,76.3883 131.4196,76.3733 M130.4946,77.2793 C130.4536,77.2843 130.4096,77.2843 130.3686,77.2813 L130.4316,77.2813 C130.4536,77.2813 130.4746,77.2813 130.4946,77.2793 M114.3236,59.3233 C114.1196,59.3443 113.9476,59.4223 113.8126,59.5383 C113.9696,59.4153 114.1636,59.3403 114.3666,59.3203 C114.3526,59.3203 114.3376,59.3203 114.3236,59.3233 M113.4606,60.2453 C113.4586,60.2653 113.4586,60.2873 113.4586,60.3083 L113.4586,60.3713 C113.4556,60.3303 113.4556,60.2873 113.4606,60.2453" id="Fill-352" fill="#005A4A"></path>
                <path d="M117.8374,62.8613 C117.8524,62.8593 127.5014,62.8593 127.5014,62.8593 C127.7094,62.8593 127.8814,63.0283 127.8814,63.2393 C127.8814,63.2393 127.8814,72.8723 127.8784,72.8873 C127.8474,73.1973 127.4524,73.3203 127.2324,73.0983 L117.6264,63.5083 C117.4034,63.2873 117.5274,62.8923 117.8374,62.8613 M114.4734,77.2813 L130.4314,77.2813 C130.4534,77.2813 130.4754,77.2813 130.4944,77.2793 L130.5134,77.2793 C130.7174,77.2593 130.9114,77.1843 131.0684,77.0613 C131.1174,77.0203 131.1634,76.9763 131.2014,76.9283 C131.3254,76.7703 131.4004,76.5763 131.4194,76.3733 L131.4194,76.3663 C131.4224,76.3413 131.4224,76.3173 131.4224,76.2913 L131.4224,60.3323 C131.4224,59.7713 130.9694,59.3183 130.4074,59.3183 L114.4494,59.3183 C114.4274,59.3183 114.4054,59.3183 114.3864,59.3203 C114.3784,59.3183 114.3714,59.3183 114.3664,59.3203 C114.1634,59.3393 113.9694,59.4153 113.8124,59.5383 C113.7634,59.5773 113.7204,59.6233 113.6794,59.6713 C113.5554,59.8293 113.4804,60.0223 113.4614,60.2263 L113.4614,60.2453 C113.4584,60.2653 113.4584,60.2863 113.4584,60.3083 L113.4584,76.2663 C113.4584,76.8283 113.9114,77.2813 114.4734,77.2813" id="Fill-353" fill="#005A4A"></path>
                <path d="M54.9684,73.8399 L45.3634,73.8399 C44.9564,73.8399 44.6264,73.5099 44.6264,73.1019 L44.6264,68.2999 L55.7064,68.2999 L55.7064,73.1019 C55.7064,73.5099 55.3764,73.8399 54.9684,73.8399 M42.2844,77.3919 L58.0474,77.3919 C58.7164,77.3919 59.2584,76.8499 59.2584,76.1809 L59.2584,60.4179 C59.2584,59.7499 58.7164,59.2079 58.0474,59.2079 L42.2844,59.2079 C41.6164,59.2079 41.0734,59.7499 41.0734,60.4179 L41.0734,76.1809 C41.0734,76.8499 41.6164,77.3919 42.2844,77.3919" id="Fill-354" fill="#005A4A"></path>
                <polygon id="Fill-355" fill="#005A4A" points="15.7291 16.0478 24.6621 16.0478 24.6621 38.9988 36.6901 38.9988 36.6901 47.4278 15.7291 47.4278"></polygon>
                <path d="M47.124,33.2053 L54.642,33.2053 C54.42,30.6403 53.006,29.0933 50.971,29.0933 C48.981,29.0933 47.434,30.5963 47.124,33.2053 M51.678,47.4443 C44.117,47.4443 39.209,42.7133 39.209,35.4613 C39.209,28.9603 43.94,23.4763 51.015,23.4763 C58.622,23.4763 62.203,28.9603 62.203,35.5493 C62.203,36.0353 62.159,37.0083 62.071,37.4503 L47.08,37.4503 C47.875,40.0153 50.22,41.2983 53.403,41.2983 C56.411,41.2983 59.02,40.5463 61.716,39.3963 L61.85,39.4843 L59.815,45.8083 C57.384,46.8693 55.173,47.4443 51.678,47.4443" id="Fill-356" fill="#005A4A"></path>
                <path d="M74.2732,31.8349 L74.2732,47.4279 L65.9162,47.4279 L65.9162,24.6709 L74.0092,23.8309 L74.0092,27.8109 C76.3082,24.8039 78.6072,23.5659 81.6142,23.5659 C84.7102,23.5659 87.0972,25.0689 88.2032,27.9429 C90.6352,24.8479 92.9792,23.5659 96.1192,23.5659 C100.5852,23.5659 103.6362,26.6169 103.6362,32.2769 L103.6362,47.4279 L95.2782,47.4279 L95.2782,34.3559 C95.2782,32.1449 94.3052,30.8179 92.2722,30.8179 C91.1662,30.8179 90.2372,31.0829 88.9552,31.8349 L88.9552,47.4279 L80.5972,47.4279 L80.5972,34.3559 C80.5972,32.1449 79.6242,30.8179 77.5902,30.8179 C76.4842,30.8179 75.5562,31.0829 74.2732,31.8349" id="Fill-357" fill="#005A4A"></path>
                <path d="M114.998,35.3553 C114.998,38.3183 116.988,40.3523 119.597,40.3523 C122.25,40.3523 124.196,38.2293 124.196,35.3113 C124.196,32.3923 122.206,30.3143 119.597,30.3143 C116.944,30.3143 114.998,32.4813 114.998,35.3553 M119.597,23.2833 C127.424,23.2833 132.2,29.0323 132.2,35.3113 C132.2,41.6343 127.291,47.4273 119.597,47.4273 C111.77,47.4273 107.039,41.6343 107.039,35.3553 C107.039,29.0763 111.902,23.2833 119.597,23.2833" id="Fill-358" fill="#005A4A"></path>
                <path d="M144.1808,32.0558 L144.1808,47.4278 L135.8238,47.4278 L135.8238,24.6708 L143.9168,23.8308 L143.9168,28.1638 C146.3478,24.8918 148.6918,23.5658 151.8758,23.5658 C156.3418,23.5658 159.3488,26.6168 159.3488,32.2768 L159.3488,47.4278 L150.9908,47.4278 L150.9908,34.3558 C150.9908,32.1448 149.9738,30.8178 147.8958,30.8178 C146.6568,30.8178 145.6408,31.1268 144.1808,32.0558" id="Fill-359" fill="#005A4A"></path>
            </g>
        </g>
    </g>
</svg>