<?xml version="1.0" encoding="UTF-8"?>
<svg width="144px" height="62px" viewBox="0 0 144 62" version="1.1" xmlns="http://www.w3.org/2000/svg" xmlns:xlink="http://www.w3.org/1999/xlink">
    <!-- Generator: Sketch 62 (91390) - https://sketch.com -->
    <title>LOGO 01</title>
    <desc>Created with Sketch.</desc>
    <g id="Page-1" stroke="none" stroke-width="1" fill="none" fill-rule="evenodd">
        <g id="Lemon" transform="translate(-121.000000, -574.000000)" fill="#005A4A">
            <g id="LOGO-01" transform="translate(121.000000, 574.000000)">
                <path d="M66.6391,56.1716 C64.4991,54.0136 64.4991,50.5046 66.6391,48.3636 C68.7971,46.2066 72.3061,46.2066 74.4461,48.3636 L66.6391,56.1716 Z M76.9551,45.8546 L76.9731,45.8376 C73.4291,42.2936 67.6741,42.2936 64.1301,45.8376 C60.5861,49.3816 60.5861,55.1356 64.1301,58.6796 L64.1481,58.6626 C67.6741,62.2066 73.4111,62.2066 76.9551,58.6626 C80.4991,55.1356 80.4991,49.3816 76.9551,45.8546 L76.9551,45.8546 Z" id="Fill-319"></path>
                <path d="M115.6929,60.2432 C115.6929,60.2702 115.6929,60.2942 115.6909,60.3182 C115.6949,60.2722 115.6949,60.2262 115.6929,60.1802 L115.6929,60.2432 Z" id="Fill-321"></path>
                <path d="M114.8282,61.2289 C114.8132,61.2309 114.7992,61.2309 114.7842,61.2309 C114.9882,61.2119 115.1822,61.1369 115.3392,61.0129 C115.2032,61.1299 115.0312,61.2069 114.8282,61.2289" id="Fill-323"></path>
                <path d="M98.7829,43.2703 C98.7419,43.2683 98.6979,43.2683 98.6569,43.2723 C98.6759,43.2703 98.6979,43.2703 98.7199,43.2703 L98.7829,43.2703 Z" id="Fill-325"></path>
                <path d="M97.7318,44.1785 C97.7318,44.1785 97.7318,44.1495 97.7338,44.1345 C97.7558,43.9315 97.8338,43.7595 97.9498,43.6235 C97.8258,43.7815 97.7508,43.9755 97.7318,44.1785" id="Fill-327"></path>
                <path d="M115.6904,60.3255 C115.6714,60.5285 115.5964,60.7225 115.4724,60.8805 C115.5884,60.7445 115.6664,60.5725 115.6884,60.3695 C115.6884,60.3545 115.6904,60.3405 115.6904,60.3255 M114.7654,61.2315 C114.7244,61.2365 114.6804,61.2365 114.6394,61.2335 L114.7024,61.2335 C114.7244,61.2335 114.7454,61.2335 114.7654,61.2315 M98.5944,43.2755 C98.3904,43.2965 98.2184,43.3745 98.0834,43.4905 C98.2404,43.3675 98.4344,43.2925 98.6374,43.2725 C98.6234,43.2725 98.6084,43.2725 98.5944,43.2755 M97.7314,44.1975 C97.7294,44.2175 97.7294,44.2385 97.7294,44.2605 L97.7294,44.3235 C97.7264,44.2825 97.7264,44.2385 97.7314,44.1975" id="Fill-329"></path>
                <path d="M102.1082,46.8135 C102.1232,46.8115 111.7722,46.8115 111.7722,46.8115 C111.9802,46.8115 112.1522,46.9805 112.1522,47.1915 C112.1522,47.1915 112.1522,56.8245 112.1492,56.8395 C112.1182,57.1495 111.7232,57.2725 111.5032,57.0505 L101.8972,47.4605 C101.6742,47.2395 101.7982,46.8445 102.1082,46.8135 M98.7442,61.2335 L114.7022,61.2335 C114.7242,61.2335 114.7462,61.2335 114.7652,61.2315 L114.7842,61.2315 C114.9882,61.2115 115.1822,61.1365 115.3392,61.0135 C115.3882,60.9725 115.4342,60.9285 115.4722,60.8805 C115.5962,60.7225 115.6712,60.5285 115.6902,60.3255 L115.6902,60.3185 C115.6932,60.2935 115.6932,60.2695 115.6932,60.2435 L115.6932,44.2845 C115.6932,43.7235 115.2402,43.2705 114.6782,43.2705 L98.7202,43.2705 C98.6982,43.2705 98.6762,43.2705 98.6572,43.2725 C98.6492,43.2705 98.6422,43.2705 98.6372,43.2725 C98.4342,43.2925 98.2402,43.3675 98.0832,43.4905 C98.0342,43.5295 97.9912,43.5755 97.9502,43.6235 C97.8262,43.7815 97.7512,43.9745 97.7322,44.1785 L97.7322,44.1975 C97.7292,44.2175 97.7292,44.2385 97.7292,44.2605 L97.7292,60.2185 C97.7292,60.7805 98.1822,61.2335 98.7442,61.2335" id="Fill-331"></path>
                <path d="M39.2392,57.7921 L29.6342,57.7921 C29.2272,57.7921 28.8972,57.4621 28.8972,57.0541 L28.8972,52.2521 L39.9772,52.2521 L39.9772,57.0541 C39.9772,57.4621 39.6472,57.7921 39.2392,57.7921 M26.5552,61.3441 L42.3182,61.3441 C42.9872,61.3441 43.5292,60.8021 43.5292,60.1331 L43.5292,44.3701 C43.5292,43.7021 42.9872,43.1601 42.3182,43.1601 L26.5552,43.1601 C25.8872,43.1601 25.3442,43.7021 25.3442,44.3701 L25.3442,60.1331 C25.3442,60.8021 25.8872,61.3441 26.5552,61.3441" id="Fill-333"></path>
                <polygon id="Fill-335" points="1.19015908e-13 5.68434189e-14 8.933 5.68434189e-14 8.933 22.951 20.961 22.951 20.961 31.38 1.19015908e-13 31.38"></polygon>
                <path d="M31.3948,17.1576 L38.9128,17.1576 C38.6908,14.5926 37.2768,13.0456 35.2418,13.0456 C33.2518,13.0456 31.7048,14.5486 31.3948,17.1576 M35.9488,31.3966 C28.3878,31.3966 23.4798,26.6656 23.4798,19.4136 C23.4798,12.9126 28.2108,7.4286 35.2858,7.4286 C42.8928,7.4286 46.4738,12.9126 46.4738,19.5016 C46.4738,19.9876 46.4298,20.9606 46.3418,21.4026 L31.3508,21.4026 C32.1458,23.9676 34.4908,25.2506 37.6738,25.2506 C40.6818,25.2506 43.2908,24.4986 45.9868,23.3486 L46.1208,23.4366 L44.0858,29.7606 C41.6548,30.8216 39.4438,31.3966 35.9488,31.3966" id="Fill-337"></path>
                <path d="M58.544,15.7871 L58.544,31.3801 L50.187,31.3801 L50.187,8.6231 L58.28,7.7831 L58.28,11.7631 C60.579,8.7561 62.878,7.5181 65.885,7.5181 C68.981,7.5181 71.368,9.0211 72.474,11.8951 C74.906,8.8001 77.25,7.5181 80.39,7.5181 C84.856,7.5181 87.907,10.5691 87.907,16.2291 L87.907,31.3801 L79.549,31.3801 L79.549,18.3081 C79.549,16.0971 78.576,14.7701 76.543,14.7701 C75.437,14.7701 74.508,15.0351 73.226,15.7871 L73.226,31.3801 L64.868,31.3801 L64.868,18.3081 C64.868,16.0971 63.895,14.7701 61.861,14.7701 C60.755,14.7701 59.827,15.0351 58.544,15.7871" id="Fill-339"></path>
                <path d="M99.2688,19.3075 C99.2688,22.2705 101.2588,24.3045 103.8678,24.3045 C106.5208,24.3045 108.4668,22.1815 108.4668,19.2635 C108.4668,16.3445 106.4768,14.2665 103.8678,14.2665 C101.2148,14.2665 99.2688,16.4335 99.2688,19.3075 M103.8678,7.2355 C111.6948,7.2355 116.4708,12.9845 116.4708,19.2635 C116.4708,25.5865 111.5618,31.3795 103.8678,31.3795 C96.0408,31.3795 91.3098,25.5865 91.3098,19.3075 C91.3098,13.0285 96.1728,7.2355 103.8678,7.2355" id="Fill-341"></path>
                <path d="M128.4517,16.008 L128.4517,31.38 L120.0947,31.38 L120.0947,8.623 L128.1877,7.783 L128.1877,12.116 C130.6187,8.844 132.9627,7.518 136.1467,7.518 C140.6127,7.518 143.6197,10.569 143.6197,16.229 L143.6197,31.38 L135.2617,31.38 L135.2617,18.308 C135.2617,16.097 134.2447,14.77 132.1667,14.77 C130.9277,14.77 129.9117,15.079 128.4517,16.008" id="Fill-343"></path>
            </g>
        </g>
    </g>
</svg>