<?xml version="1.0" encoding="UTF-8"?>
<svg width="339px" height="182px" viewBox="0 0 339 182" version="1.1" xmlns="http://www.w3.org/2000/svg" xmlns:xlink="http://www.w3.org/1999/xlink">
    <!-- Generator: Sketch 62 (91390) - https://sketch.com -->
    <title>PATTERN</title>
    <desc>Created with Sketch.</desc>
    <defs>
        <polygon id="path-1" points="0.831998954 0.367398955 24.946 0.367398955 24.946 24.482401 0.831998954 24.482401"></polygon>
    </defs>
    <g id="Page-1" stroke="none" stroke-width="1" fill="none" fill-rule="evenodd">
        <g id="Lemon" transform="translate(-399.000000, -795.000000)">
            <g id="PATTERN" transform="translate(399.000000, 795.000000)">
                <path d="M135.702601,38.2709 C135.702601,42.3019 138.981601,45.5809 143.012601,45.5809 C147.043601,45.5809 150.322601,42.3019 150.322601,38.2709 C150.322601,34.2399 147.043601,30.9609 143.012601,30.9609 C138.981601,30.9609 135.702601,34.2399 135.702601,38.2709" id="Fill-28" fill="#005A4A"></path>
                <path d="M135.702601,90.66 C135.702601,94.691 138.981601,97.97 143.012601,97.97 C147.043601,97.97 150.322601,94.691 150.322601,90.66 C150.322601,86.629 147.043601,83.35 143.012601,83.35 C138.981601,83.35 135.702601,86.629 135.702601,90.66" id="Fill-30" fill="#005A4A"></path>
                <path d="M161.922601,143.0929 C161.922601,147.1239 165.201601,150.4029 169.232601,150.4029 C173.263601,150.4029 176.542601,147.1239 176.542601,143.0929 C176.542601,139.0619 173.263601,135.7829 169.232601,135.7829 C165.201601,135.7829 161.922601,139.0619 161.922601,143.0929" id="Fill-32" fill="#005A4A"></path>
                <path d="M109.48249,116.587 C109.489501,120.618 112.773501,123.892 116.804501,123.885011 C120.835501,123.879 124.109501,120.594 124.102512,116.563 C124.096501,112.532 120.811501,109.258 116.780501,109.264989 C112.749501,109.271 109.475501,112.556 109.48249,116.587" id="Fill-34" fill="#005A4A"></path>
                <path d="M83.2624012,90.66 C83.2624012,94.691 86.5414012,97.97 90.5724012,97.97 C94.6034012,97.97 97.8824012,94.691 97.8824012,90.66 C97.8824012,86.629 94.6034012,83.35 90.5724012,83.35 C86.5414012,83.35 83.2624012,86.629 83.2624012,90.66" id="Fill-36" fill="#005A4A"></path>
                <path d="M127.947201,155.1729 L128.860201,155.1729 L128.860201,131.0129 L104.725201,131.0129 C105.218201,143.8279 115.265201,154.1849 127.947201,155.1729" id="Fill-38" fill="#005A4A"></path>
                <path d="M109.482501,12.0594 C109.482501,16.0904 112.761501,19.3694 116.792501,19.3694 C120.823501,19.3694 124.102501,16.0904 124.102501,12.0594 C124.102501,8.0284 120.823501,4.7494 116.792501,4.7494 C112.761501,4.7494 109.482501,8.0284 109.482501,12.0594 M128.819501,12.0594 C128.819501,18.6904 123.424501,24.0854 116.792501,24.0854 C110.161501,24.0854 104.766501,18.6904 104.766501,12.0594 C104.766501,5.4284 110.161501,0.0324 116.792501,0.0324 C123.424501,0.0324 128.819501,5.4284 128.819501,12.0594" id="Fill-40" fill="#005A4A"></path>
                <path d="M83.2624012,143.0929 C83.2624012,147.1239 86.5414012,150.4029 90.5724012,150.4029 C94.6034012,150.4029 97.8824012,147.1239 97.8824012,143.0929 C97.8824012,139.0619 94.6034012,135.7829 90.5724012,135.7829 C86.5414012,135.7829 83.2624012,139.0619 83.2624012,143.0929 M102.599401,143.0929 C102.599401,149.7239 97.2044012,155.1189 90.5724012,155.1189 C83.9414012,155.1189 78.5464012,149.7239 78.5464012,143.0929 C78.5464012,136.4619 83.9414012,131.0659 90.5724012,131.0659 C97.2044012,131.0659 102.599401,136.4619 102.599401,143.0929" id="Fill-42" fill="#005A4A"></path>
                <path d="M38.1442012,176.6089 C34.1142012,176.6089 30.8342012,173.3309 30.8342012,169.2989 C30.8342012,165.2689 34.1142012,161.9889 38.1442012,161.9889 L38.1442012,176.6089 Z M26.1192012,169.2989 C26.1192012,175.9299 31.5132012,181.3259 38.1442012,181.3259 L38.1442012,181.3009 C44.7742012,181.3009 50.1462012,175.9269 50.1462012,169.2989 C50.1462012,162.6709 44.7742012,157.2969 38.1442012,157.2969 L38.1442012,157.2739 C31.5132012,157.2739 26.1192012,162.6679 26.1192012,169.2989 L26.1192012,169.2989 Z" id="Fill-44" fill="#005A4A"></path>
                <path d="M64.3408012,57.1676 C68.3708012,57.1676 71.6508012,60.4456 71.6508012,64.4776 C71.6508012,68.5076 68.3708012,71.7876 64.3408012,71.7876 L64.3408012,57.1676 Z M76.3658012,64.4776 C76.3658012,57.8466 70.9718012,52.4506 64.3408012,52.4506 L64.3408012,52.4756 C57.7108012,52.4756 52.3388012,57.8496 52.3388012,64.4776 C52.3388012,71.1056 57.7108012,76.4796 64.3408012,76.4796 L64.3408012,76.5026 C70.9718012,76.5026 76.3658012,71.1086 76.3658012,64.4776 L76.3658012,64.4776 Z" id="Fill-46" fill="#005A4A"></path>
                <path d="M128.832601,27.8346 L128.832601,48.7076 C128.832601,49.5926 128.114601,50.3106 127.228601,50.3106 L106.356601,50.3106 C105.470601,50.3106 104.752601,49.5926 104.752601,48.7076 L104.752601,27.8346 C104.752601,26.9486 105.470601,26.2306 106.356601,26.2306 L127.228601,26.2306 C128.114601,26.2306 128.832601,26.9486 128.832601,27.8346" id="Fill-48" fill="#005A4A"></path>
                <path d="M96.9316012,4.7233 C97.4716012,4.7233 97.9086012,5.1603 97.9086012,5.7003 L97.9086012,18.4183 C97.9086012,18.9583 97.4716012,19.3953 96.9316012,19.3953 L84.2136012,19.3953 C83.6736012,19.3953 83.2366012,18.9583 83.2366012,18.4183 L83.2366012,5.7003 C83.2366012,5.1603 83.6736012,4.7233 84.2136012,4.7233 L96.9316012,4.7233 Z M78.5326012,1.6233 L78.5326012,22.4953 C78.5326012,23.3813 79.2506012,24.0993 80.1366012,24.0993 L101.008601,24.0993 C101.894601,24.0993 102.612601,23.3813 102.612601,22.4953 L102.612601,1.6233 C102.612601,0.7373 101.894601,0.0193 101.008601,0.0193 L80.1366012,0.0193 C79.2506012,0.0193 78.5326012,0.7373 78.5326012,1.6233 L78.5326012,1.6233 Z" id="Fill-50" fill="#005A4A"></path>
                <path d="M175.579801,109.228398 C176.119801,109.2274 176.557801,109.6644 176.558801,110.2034 L176.579801,122.9214 C176.579801,123.4614 176.143801,123.8994 175.603801,123.9004 L162.885801,123.921402 C162.346801,123.9224 161.907801,123.4854 161.906801,122.9464 L161.8868,110.228398 C161.885801,109.6884 162.321801,109.2504 162.861801,109.2494 L175.579801,109.228398 Z M157.1758,106.1584 L157.209801,127.0314 C157.211801,127.9164 157.930801,128.6334 158.816801,128.632401 L179.688801,128.5974 C180.574801,128.5964 181.291801,127.8774 181.289805,126.9914 L181.255801,106.1184 C181.253801,105.2334 180.534801,104.5164 179.649801,104.517399 L158.776801,104.5524 C157.890801,104.5534 157.174801,105.2724 157.1758,106.1584 L157.1758,106.1584 Z" id="Fill-52" fill="#005A4A"></path>
                <path d="M176.569001,84.301 L176.569001,97.019 C176.569001,97.559 176.132001,97.996 175.592001,97.996 L162.874001,97.996 C162.334001,97.996 161.897001,97.559 161.897001,97.019 L161.897001,84.301 C161.897001,83.761 162.334001,83.324 162.874001,83.324 L175.592001,83.324 C176.132001,83.324 176.569001,83.761 176.569001,84.301" id="Fill-54" fill="#005A4A"></path>
                <path d="M150.348901,5.7003 L150.348901,18.4183 C150.348901,18.9583 149.911901,19.3953 149.371901,19.3953 L136.653901,19.3953 C136.113901,19.3953 135.676901,18.9583 135.676901,18.4183 L135.676901,5.7003 C135.676901,5.1603 136.113901,4.7233 136.653901,4.7233 L149.371901,4.7233 C149.911901,4.7233 150.348901,5.1603 150.348901,5.7003" id="Fill-56" fill="#005A4A"></path>
                <path d="M150.348901,162.9406 L150.348901,175.6586 C150.348901,176.1986 149.911901,176.6356 149.371901,176.6356 L136.653901,176.6356 C136.113901,176.6356 135.676901,176.1986 135.676901,175.6586 L135.676901,162.9406 C135.676901,162.4006 136.113901,161.9636 136.653901,161.9636 L149.371901,161.9636 C149.911901,161.9636 150.348901,162.4006 150.348901,162.9406" id="Fill-58" fill="#005A4A"></path>
                <path d="M131.135401,127.1759 L131.1004,106.0459 C131.099401,105.3019 131.701401,104.6989 132.444401,104.6979 L153.574401,104.6629 C153.631401,104.6629 153.687401,104.6659 153.742401,104.6709 C154.839401,104.7829 155.273401,106.1709 154.494401,106.9519 L133.427401,128.0879 C132.649401,128.8699 131.260401,128.4409 131.144401,127.3439 C131.138401,127.2889 131.135401,127.2329 131.135401,127.1759" id="Fill-60" fill="#005A4A"></path>
                <path d="M135.811701,65.758 C135.809701,65.737 135.808701,65.716 135.808701,65.695 L135.808701,57.777 C135.808701,57.498 136.034701,57.273 136.312701,57.273 L144.230701,57.273 C144.252701,57.273 144.273701,57.274 144.293701,57.276 C144.704701,57.319 144.866701,57.839 144.574701,58.131 L136.666701,66.039 C136.374701,66.331 135.854701,66.169 135.811701,65.758 M133.408701,75.974 L154.510701,54.873 C155.290701,54.093 154.858701,52.705 153.761701,52.591 C153.706701,52.585 153.650701,52.582 153.594701,52.582 L132.463701,52.582 C131.720701,52.582 131.117701,53.185 131.117701,53.928 L131.117701,75.058 C131.117701,75.115 131.120701,75.171 131.126701,75.226 C131.240701,76.323 132.628701,76.755 133.408701,75.974" id="Fill-62" fill="#005A4A"></path>
                <path d="M91.8655012,123.7739 C91.8445012,123.7759 91.8235012,123.7769 91.8025012,123.7769 L83.8845012,123.789903 C83.6055012,123.7909 83.3795012,123.5649 83.3795012,123.2869 L83.3665012,115.3689 C83.3665012,115.3469 83.3675012,115.3259 83.3695012,115.3059 C83.4115012,114.8949 83.9315012,114.7319 84.2245012,115.0239 L92.1445012,122.9179 C92.4375012,123.2099 92.2765012,123.7309 91.8655012,123.7739 M102.085501,126.1599 L80.9495012,105.0929 C80.1685012,104.3149 78.7805012,104.7479 78.6685012,105.8459 C78.6635012,105.9009 78.6605012,105.9569 78.6605012,106.0129 L78.6955012,127.1439 C78.6965012,127.8869 79.2995012,128.4879 80.0435012,128.486901 L101.173501,128.4519 C101.230501,128.4519 101.286501,128.4489 101.341501,128.4429 C102.438501,128.3279 102.867501,126.9389 102.085501,126.1599" id="Fill-64" fill="#005A4A"></path>
                <path d="M150.213901,141.8118 C150.215901,141.8328 150.216901,141.8538 150.216901,141.8748 L150.216901,149.7928 C150.216901,150.0718 149.990901,150.2968 149.712901,150.2968 L141.794901,150.2968 C141.772901,150.2968 141.751901,150.2958 141.731901,150.2938 C141.320901,150.2508 141.158901,149.7308 141.450901,149.4388 L149.358901,141.5308 C149.650901,141.2388 150.170901,141.4008 150.213901,141.8118 M152.616901,131.5948 L131.514901,152.6968 C130.734901,153.4768 131.166901,154.8648 132.263901,154.9788 C132.318901,154.9848 132.374901,154.9878 132.430901,154.9878 L153.561901,154.9878 C154.304901,154.9878 154.907901,154.3848 154.907901,153.6418 L154.907901,132.5118 C154.907901,132.4548 154.904901,132.3988 154.898901,132.3438 C154.784901,131.2468 153.396901,130.8148 152.616901,131.5948" id="Fill-66" fill="#005A4A"></path>
                <path d="M173.471701,43.0359 L165.006701,43.0359 C164.709701,43.0359 164.467701,42.7949 164.467701,42.4969 L164.467701,34.0319 C164.467701,34.0099 164.468701,33.9869 164.471701,33.9649 C164.516701,33.5259 165.072701,33.3529 165.385701,33.6649 L173.838701,42.1179 C174.150701,42.4309 173.978701,42.9869 173.538701,43.0329 C173.516701,43.0349 173.494701,43.0359 173.471701,43.0359" id="Fill-68" fill="#005A4A"></path>
                <path d="M121.557701,60.2381 L121.557701,68.7031 C121.557701,69.0001 121.316701,69.2421 121.018701,69.2421 L112.553701,69.2421 C112.531701,69.2421 112.508701,69.2411 112.486701,69.2381 C112.047701,69.1931 111.874701,68.6371 112.186701,68.3241 L120.639701,59.8711 C120.952701,59.5591 121.508701,59.7311 121.554701,60.1711 C121.556701,60.1931 121.557701,60.2151 121.557701,60.2381" id="Fill-70" fill="#005A4A"></path>
                <path d="M85.8076012,42.5098 L85.8076012,34.0448 C85.8076012,33.7478 86.0486012,33.5058 86.3466012,33.5058 L94.8116012,33.5058 C94.8336012,33.5058 94.8566012,33.5068 94.8786012,33.5098 C95.3176012,33.5548 95.4906012,34.1108 95.1786012,34.4238 L86.7256012,42.8768 C86.4126012,43.1888 85.8566012,43.0168 85.8106012,42.5768 C85.8086012,42.5548 85.8076012,42.5328 85.8076012,42.5098" id="Fill-72" fill="#005A4A"></path>
                <path d="M94.8115012,174.0645 L86.3465012,174.0645 C86.0495012,174.0645 85.8075012,173.8235 85.8075012,173.5255 L85.8075012,165.0605 C85.8075012,165.0385 85.8085012,165.0155 85.8115012,164.9935 C85.8565012,164.5545 86.4125012,164.3815 86.7255012,164.6935 L95.1785012,173.1465 C95.4905012,173.4595 95.3185012,174.0155 94.8785012,174.0615 C94.8565012,174.0635 94.8345012,174.0645 94.8115012,174.0645" id="Fill-74" fill="#005A4A"></path>
                <path d="M175.591901,176.6357 L162.873901,176.6357 C162.333901,176.6357 161.896901,176.1987 161.896901,175.6587 L161.896901,169.2997 L176.568901,169.2997 L176.568901,175.6587 C176.568901,176.1987 176.131901,176.6357 175.591901,176.6357 M158.796901,181.3397 L179.668901,181.3397 C180.554901,181.3397 181.272901,180.6217 181.272901,179.7357 L181.272901,158.8637 C181.272901,157.9777 180.554901,157.2597 179.668901,157.2597 L158.796901,157.2597 C157.910901,157.2597 157.192901,157.9777 157.192901,158.8637 L157.192901,179.7357 C157.192901,180.6217 157.910901,181.3397 158.796901,181.3397" id="Fill-76" fill="#005A4A"></path>
                <path d="M83.2365012,70.836 L83.2365012,58.118 C83.2365012,57.578 83.6735012,57.141 84.2135012,57.141 L90.5725012,57.141 L90.5725012,71.813 L84.2135012,71.813 C83.6735012,71.813 83.2365012,71.376 83.2365012,70.836 M78.5325012,54.041 L78.5325012,74.913 C78.5325012,75.799 79.2505012,76.517 80.1365012,76.517 L101.008501,76.517 C101.894501,76.517 102.612501,75.799 102.612501,74.913 L102.612501,54.041 C102.612501,53.155 101.894501,52.437 101.008501,52.437 L80.1365012,52.437 C79.2505012,52.437 78.5325012,53.155 78.5325012,54.041" id="Fill-78" fill="#005A4A"></path>
                <path d="M57.0423012,38.2709 C57.0423012,42.3019 60.3213012,45.5809 64.3523012,45.5809 C68.3833012,45.5809 71.6623012,42.3019 71.6623012,38.2709 C71.6623012,34.2399 68.3833012,30.9609 64.3523012,30.9609 C60.3213012,30.9609 57.0423012,34.2399 57.0423012,38.2709" id="Fill-80" fill="#005A4A"></path>
                <path d="M38.1324012,78.6579 C31.5034012,78.6579 26.1304012,84.0319 26.1304012,90.6599 C26.1304012,97.2889 31.5034012,102.6619 38.1324012,102.6619 C44.7614012,102.6619 50.1344012,97.2889 50.1344012,90.6599 C50.1344012,84.0319 44.7614012,78.6579 38.1324012,78.6579" id="Fill-82" fill="#005A4A"></path>
                <path d="M169.232901,0.0573 C162.603901,0.0573 157.230901,5.4313 157.230901,12.0593 C157.230901,18.6883 162.603901,24.0613 169.232901,24.0613 C175.861901,24.0613 181.234901,18.6883 181.234901,12.0593 C181.234901,5.4313 175.861901,0.0573 169.232901,0.0573" id="Fill-84" fill="#005A4A"></path>
                <path d="M26.9780012,26.1909 L26.0650012,26.1909 L26.0650012,50.3509 L50.2000012,50.3509 C49.7070012,37.5359 39.6600012,27.1789 26.9780012,26.1909" id="Fill-86" fill="#005A4A"></path>
                <path d="M57.0423012,90.66 C57.0423012,94.691 60.3213012,97.97 64.3523012,97.97 C68.3833012,97.97 71.6623012,94.691 71.6623012,90.66 C71.6623012,86.629 68.3833012,83.35 64.3523012,83.35 C60.3213012,83.35 57.0423012,86.629 57.0423012,90.66 M76.3793012,90.66 C76.3793012,97.291 70.9843012,102.687 64.3523012,102.687 C57.7213012,102.687 52.3263012,97.291 52.3263012,90.66 C52.3263012,84.029 57.7213012,78.634 64.3523012,78.634 C70.9843012,78.634 76.3793012,84.029 76.3793012,90.66" id="Fill-88" fill="#005A4A"></path>
                <path d="M71.6782012,110.2038 L71.699203,122.9218 C71.7002012,123.4618 71.2632012,123.8998 70.7232012,123.9008 L58.0052012,123.921802 C57.4662012,123.9228 57.0282012,123.4858 57.0272012,122.9458 L57.0061995,110.2278 C57.0052012,109.6888 57.4422012,109.2498 57.9812012,109.2488 L70.6992012,109.228798 C71.2392012,109.2278 71.6772012,109.6638 71.6782012,110.2038" id="Fill-90" fill="#005A4A"></path>
                <path d="M53.7711012,131.1981 L74.9011012,131.1981 C75.6451012,131.1981 76.2471012,131.8011 76.2471012,132.5441 L76.2471012,153.6741 C76.2471012,153.7311 76.2441012,153.7871 76.2391012,153.8421 C76.1251012,154.9391 74.7361012,155.3701 73.9561012,154.5901 L52.8551012,133.4891 C52.0751012,132.7091 52.5061012,131.3211 53.6031012,131.2071 C53.6581012,131.2011 53.7141012,131.1981 53.7711012,131.1981" id="Fill-92" fill="#005A4A"></path>
                <path d="M57.1514012,170.5806 C57.1494012,170.5596 57.1484012,170.5386 57.1484012,170.5176 L57.1484012,162.5996 C57.1484012,162.3206 57.3744012,162.0956 57.6524012,162.0956 L65.5704012,162.0956 C65.5924012,162.0956 65.6134012,162.0966 65.6334012,162.0986 C66.0444012,162.1416 66.2064012,162.6616 65.9144012,162.9536 L58.0064012,170.8616 C57.7144012,171.1536 57.1944012,170.9916 57.1514012,170.5806 M54.7484012,180.7976 L75.8504012,159.6956 C76.6304012,158.9156 76.1984012,157.5276 75.1014012,157.4136 C75.0464012,157.4076 74.9904012,157.4046 74.9344012,157.4046 L53.8034012,157.4046 C53.0604012,157.4046 52.4574012,158.0076 52.4574012,158.7506 L52.4574012,179.8806 C52.4574012,179.9376 52.4604012,179.9936 52.4664012,180.0486 C52.5804012,181.1456 53.9684012,181.5776 54.7484012,180.7976" id="Fill-94" fill="#005A4A"></path>
                <path d="M57.1514012,13.3405 C57.1494012,13.3195 57.1484012,13.2985 57.1484012,13.2775 L57.1484012,5.3595 C57.1484012,5.0805 57.3744012,4.8555 57.6524012,4.8555 L65.5704012,4.8555 C65.5924012,4.8555 65.6134012,4.8565 65.6334012,4.8585 C66.0444012,4.9015 66.2064012,5.4215 65.9144012,5.7135 L58.0064012,13.6215 C57.7144012,13.9135 57.1944012,13.7515 57.1514012,13.3405 M54.7484012,23.5565 L75.8504012,2.4555 C76.6304012,1.6755 76.1984012,0.2875 75.1014012,0.1735 C75.0464012,0.1675 74.9904012,0.1645 74.9344012,0.1645 L53.8034012,0.1645 C53.0604012,0.1645 52.4574012,0.7675 52.4574012,1.5105 L52.4574012,22.6405 C52.4574012,22.6975 52.4604012,22.7535 52.4664012,22.8085 C52.5804012,23.9055 53.9684012,24.3375 54.7484012,23.5565" id="Fill-96" fill="#005A4A"></path>
                <path d="M42.9058012,7.8206 L42.9058012,16.2856 C42.9058012,16.5826 42.6648012,16.8246 42.3668012,16.8246 L33.9018012,16.8246 C33.8798012,16.8246 33.8568012,16.8236 33.8348012,16.8206 C33.3958012,16.7756 33.2228012,16.2196 33.5348012,15.9066 L41.9878012,7.4536 C42.3008012,7.1416 42.8568012,7.3136 42.9028012,7.7536 C42.9048012,7.7756 42.9058012,7.7976 42.9058012,7.8206" id="Fill-98" fill="#005A4A"></path>
                <path d="M42.3713012,69.2419 L33.9063012,69.2419 C33.6093012,69.2419 33.3673012,69.0009 33.3673012,68.7029 L33.3673012,60.2379 C33.3673012,60.2159 33.3683012,60.1929 33.3713012,60.1709 C33.4163012,59.7319 33.9723012,59.5589 34.2853012,59.8709 L42.7383012,68.3239 C43.0503012,68.6369 42.8783012,69.1929 42.4383012,69.2389 C42.4163012,69.2409 42.3943012,69.2419 42.3713012,69.2419" id="Fill-100" fill="#005A4A"></path>
                <path d="M42.3713012,147.8578 L33.9063012,147.8578 C33.6093012,147.8578 33.3673012,147.6168 33.3673012,147.3188 L33.3673012,138.8538 C33.3673012,138.8318 33.3683012,138.8088 33.3713012,138.7868 C33.4163012,138.3478 33.9723012,138.1748 34.2853012,138.4868 L42.7383012,146.9398 C43.0503012,147.2528 42.8783012,147.8088 42.4383012,147.8548 C42.4163012,147.8568 42.3943012,147.8578 42.3713012,147.8578" id="Fill-102" fill="#005A4A"></path>
                <path d="M38.1489012,128.7796 C38.1139012,128.7796 38.0819012,128.7796 38.0499012,128.7766 C38.1109012,128.7826 38.1709012,128.7826 38.2319012,128.7796 L38.1489012,128.7796 Z" id="Fill-104" fill="#2E2F7D"></path>
                <path d="M26.2454012,127.6346 C26.2424012,127.6156 26.2424012,127.5966 26.2424012,127.5766 C26.2674012,127.8466 26.3674012,128.1026 26.5304012,128.3116 C26.3774012,128.1316 26.2744012,127.9036 26.2454012,127.6346" id="Fill-106" fill="#2E2F7D"></path>
                <path d="M50.0258012,106.3878 C50.0288012,106.3328 50.0288012,106.2758 50.0228012,106.2208 C50.0258012,106.2468 50.0258012,106.2758 50.0258012,106.3048 L50.0258012,106.3878 Z" id="Fill-108" fill="#2E2F7D"></path>
                <path d="M48.8232012,104.996 C48.8422012,104.996 48.8612012,104.996 48.8812012,104.999 C49.1502012,105.028 49.3782012,105.131 49.5572012,105.285 C49.3492012,105.121 49.0922012,105.022 48.8232012,104.996" id="Fill-110" fill="#2E2F7D"></path>
                <path d="M27.4528012,128.7764 C27.1838012,128.7504 26.9268012,128.6514 26.7188012,128.4874 C26.8978012,128.6414 27.1258012,128.7444 27.3948012,128.7734 C27.4148012,128.7734 27.4338012,128.7764 27.4528012,128.7764 M26.2538012,127.5514 C26.2468012,127.4964 26.2468012,127.4394 26.2498012,127.3844 L26.2498012,127.4674 C26.2498012,127.4964 26.2498012,127.5254 26.2538012,127.5514 M50.0308012,106.1374 C50.0018012,105.8684 49.8988012,105.6404 49.7448012,105.4614 C49.9088012,105.6694 50.0078012,105.9264 50.0338012,106.1954 C50.0338012,106.1764 50.0338012,106.1574 50.0308012,106.1374 M48.8088012,104.9964 C48.7828012,104.9924 48.7538012,104.9924 48.7248012,104.9924 L48.6418012,104.9924 C48.6968012,104.9894 48.7538012,104.9894 48.8088012,104.9964" id="Fill-112" fill="#2E2F7D"></path>
                <path d="M45.3239012,110.468 C45.3269012,110.487 45.3479046,123.264 45.3479046,123.264 C45.3489012,123.54 45.1249012,123.768 44.8459012,123.769 C44.8459012,123.769 32.0889012,123.79 32.0699012,123.786 C31.6589012,123.745 31.4949012,123.223 31.7889012,122.931 L44.4669012,110.19 C44.7589012,109.895 45.2819012,110.058 45.3239012,110.468 M26.2219,106.045 L26.2569012,127.176 C26.2569012,127.205 26.2569012,127.234 26.2599012,127.26 L26.2599012,127.285 C26.2859012,127.555 26.3859012,127.811 26.5499012,128.019 C26.6039012,128.083 26.6619012,128.144 26.7269012,128.195 C26.9349012,128.359 27.1919012,128.457 27.4609012,128.483 L27.4709012,128.483 C27.5029012,128.486 27.5349012,128.486 27.5699012,128.486 L48.7019012,128.451 C49.4459012,128.45 50.0449012,127.849 50.0429062,127.105 L50.0089012,105.974 C50.0079012,105.945 50.0079012,105.916 50.0049012,105.89 C50.0079012,105.881 50.0079012,105.871 50.0049012,105.865 C49.9789012,105.595 49.8789012,105.339 49.7149012,105.131 C49.6639012,105.067 49.6029012,105.009 49.5389012,104.955 C49.3299012,104.791 49.0729012,104.692 48.8039012,104.667 L48.7779012,104.667 C48.7519012,104.664 48.7239012,104.664 48.6949012,104.664 L27.5629012,104.699 C26.8189012,104.7 26.2209012,105.301 26.2219,106.045" id="Fill-114" fill="#005A4A"></path>
                <path d="M122.899601,97.8514 C122.880601,97.8544 110.103601,97.8754033 110.103601,97.8754033 C109.827601,97.8764 109.599601,97.6524 109.598601,97.3734 C109.598601,97.3734 109.577601,84.6164 109.581601,84.5974 C109.622601,84.1864 110.144601,84.0224 110.436601,84.3164 L123.177601,96.9944 C123.472601,97.2864 123.309601,97.8094 122.899601,97.8514 M127.322601,78.7493987 L106.191601,78.7844 C106.162601,78.7844 106.133601,78.7844 106.107601,78.7874 L106.082601,78.7874 C105.812601,78.8134 105.556601,78.9134 105.348601,79.0774 C105.284601,79.1314 105.223601,79.1894 105.172601,79.2544 C105.008601,79.4624 104.910601,79.7194 104.884601,79.9884 L104.884601,79.9984 C104.881601,80.0304 104.881601,80.0624 104.881601,80.0974 L104.916601,101.2294 C104.917601,101.9734 105.518601,102.5724 106.262601,102.570405 L127.393601,102.5364 C127.422601,102.5354 127.451601,102.5354 127.477601,102.5324 C127.486601,102.5354 127.496601,102.5354 127.502601,102.5324 C127.772601,102.5064 128.028601,102.4064 128.236601,102.2424 C128.300601,102.1914 128.358601,102.1304 128.412601,102.0664 C128.576601,101.8574 128.675601,101.6004 128.700601,101.3314 L128.700601,101.3054 C128.703601,101.2794 128.703601,101.2514 128.703601,101.2224 L128.668601,80.0904 C128.667601,79.3464 128.066601,78.7484 127.322601,78.7493987" id="Fill-116" fill="#005A4A"></path>
                <path d="M106.211001,181.193 C106.176001,181.193 106.144001,181.193 106.112001,181.19 C106.173001,181.196 106.233001,181.196 106.294001,181.193 L106.211001,181.193 Z" id="Fill-118" fill="#2E2F7D"></path>
                <path d="M104.905701,180.048 C104.902701,180.029 104.902701,180.01 104.902701,179.99 C104.927701,180.26 105.027701,180.516 105.190701,180.725 C105.037701,180.545 104.934701,180.317 104.905701,180.048" id="Fill-120" fill="#2E2F7D"></path>
                <path d="M128.686101,158.8012 C128.689101,158.7472 128.689101,158.6892 128.683101,158.6342 C128.686101,158.6602 128.686101,158.6892 128.686101,158.7182 L128.686101,158.8012 Z" id="Fill-122" fill="#2E2F7D"></path>
                <path d="M127.483501,157.4094 C127.502501,157.4094 127.521501,157.4094 127.541501,157.4124 C127.810501,157.4414 128.038501,157.5444 128.217501,157.6984 C128.009501,157.5344 127.752501,157.4354 127.483501,157.4094" id="Fill-124" fill="#2E2F7D"></path>
                <path d="M106.102001,181.1898 C105.833001,181.1638 105.576001,181.0648 105.368001,180.9008 C105.547001,181.0548 105.775001,181.1578 106.044001,181.1868 C106.063001,181.1868 106.083001,181.1898 106.102001,181.1898 M104.903001,179.9648 C104.896001,179.9098 104.896001,179.8528 104.899001,179.7978 L104.899001,179.8808 C104.899001,179.9098 104.899001,179.9388 104.903001,179.9648 M128.680001,158.5508 C128.651001,158.2818 128.548001,158.0538 128.394001,157.8748 C128.558001,158.0828 128.657001,158.3398 128.683001,158.6088 C128.683001,158.5898 128.683001,158.5708 128.680001,158.5508 M127.458001,157.4098 C127.432001,157.4058 127.403001,157.4058 127.374001,157.4058 L127.291001,157.4058 C127.346001,157.4028 127.403001,157.4028 127.458001,157.4098" id="Fill-126" fill="#2E2F7D"></path>
                <path d="M123.994201,163.2045 C123.997201,163.2235 123.997201,176.0005 123.997201,176.0005 C123.997201,176.2765 123.773201,176.5045 123.494201,176.5045 C123.494201,176.5045 110.737201,176.5045 110.718201,176.5015 C110.307201,176.4595 110.144201,175.9365 110.439201,175.6445 L123.138201,162.9255 C123.430201,162.6305 123.952201,162.7935 123.994201,163.2045 M104.899201,158.7495 L104.899201,179.8815 C104.899201,179.9105 104.899201,179.9395 104.902201,179.9645 L104.902201,179.9905 C104.928201,180.2595 105.027201,180.5165 105.191201,180.7245 C105.245201,180.7885 105.303201,180.8495 105.367201,180.9015 C105.576201,181.0645 105.832201,181.1645 106.102201,181.1895 L106.111201,181.1895 C106.143201,181.1925 106.176201,181.1925 106.211201,181.1925 L127.342201,181.1925 C128.086201,181.1925 128.686201,180.5935 128.686201,179.8495 L128.686201,158.7175 C128.686201,158.6885 128.686201,158.6605 128.683201,158.6345 C128.686201,158.6245 128.686201,158.6155 128.683201,158.6085 C128.657201,158.3395 128.558201,158.0825 128.394201,157.8745 C128.343201,157.8105 128.282201,157.7525 128.218201,157.6985 C128.009201,157.5345 127.753201,157.4355 127.483201,157.4095 L127.458201,157.4095 C127.432201,157.4065 127.403201,157.4065 127.374201,157.4065 L106.243201,157.4065 C105.499201,157.4065 104.899201,158.0055 104.899201,158.7495" id="Fill-128" fill="#005A4A"></path>
                <path d="M158.651101,76.3704 C158.616101,76.3704 158.584101,76.3704 158.552101,76.3674 C158.613101,76.3734 158.673101,76.3734 158.734101,76.3704 L158.651101,76.3704 Z" id="Fill-130" fill="#2E2F7D"></path>
                <path d="M157.345901,75.2254 C157.342901,75.2064 157.342901,75.1874 157.342901,75.1674 C157.367901,75.4374 157.467901,75.6934 157.630901,75.9024 C157.476901,75.7224 157.374901,75.4944 157.345901,75.2254" id="Fill-132" fill="#2E2F7D"></path>
                <path d="M181.126301,53.9786 C181.129301,53.9246 181.129301,53.8666 181.123301,53.8116 C181.126301,53.8376 181.126301,53.8666 181.126301,53.8956 L181.126301,53.9786 Z" id="Fill-134" fill="#2E2F7D"></path>
                <path d="M179.923601,52.5867 C179.942601,52.5867 179.961601,52.5867 179.981601,52.5897 C180.250601,52.6187 180.478601,52.7217 180.657601,52.8757 C180.449601,52.7117 180.192601,52.6127 179.923601,52.5867" id="Fill-136" fill="#2E2F7D"></path>
                <path d="M158.542101,76.3672 C158.273101,76.3412 158.016101,76.2422 157.808101,76.0782 C157.987101,76.2322 158.215101,76.3352 158.484101,76.3642 C158.504101,76.3642 158.523101,76.3672 158.542101,76.3672 M157.343101,75.1422 C157.336101,75.0872 157.336101,75.0302 157.339101,74.9752 L157.339101,75.0582 C157.339101,75.0872 157.339101,75.1162 157.343101,75.1422 M181.120101,53.7282 C181.091101,53.4592 180.988101,53.2312 180.834101,53.0522 C180.998101,53.2602 181.097101,53.5172 181.123101,53.7862 C181.123101,53.7672 181.123101,53.7482 181.120101,53.7282 M179.898101,52.5872 C179.872101,52.5832 179.843101,52.5832 179.814101,52.5832 L179.731101,52.5832 C179.786101,52.5802 179.843101,52.5802 179.898101,52.5872" id="Fill-138" fill="#2E2F7D"></path>
                <path d="M176.434301,58.3819 C176.437301,58.4009 176.437301,71.1779 176.437301,71.1779 C176.437301,71.4539 176.213301,71.6819 175.934301,71.6819 C175.934301,71.6819 163.177301,71.6819 163.158301,71.6789 C162.747301,71.6369 162.584301,71.1139 162.879301,70.8219 L175.578301,58.1029 C175.870301,57.8079 176.392301,57.9709 176.434301,58.3819 M157.339301,53.9269 L157.339301,75.0589 C157.339301,75.0879 157.339301,75.1169 157.342301,75.1419 L157.342301,75.1679 C157.368301,75.4369 157.467301,75.6939 157.631301,75.9019 C157.685301,75.9659 157.743301,76.0269 157.807301,76.0789 C158.016301,76.2419 158.272301,76.3419 158.542301,76.3669 L158.551301,76.3669 C158.583301,76.3699 158.616301,76.3699 158.651301,76.3699 L179.782301,76.3699 C180.526301,76.3699 181.126301,75.7709 181.126301,75.0269 L181.126301,53.8949 C181.126301,53.8659 181.126301,53.8379 181.123301,53.8119 C181.126301,53.8019 181.126301,53.7929 181.123301,53.7859 C181.097301,53.5169 180.998301,53.2599 180.834301,53.0519 C180.783301,52.9879 180.722301,52.9299 180.658301,52.8759 C180.449301,52.7119 180.193301,52.6129 179.923301,52.5869 L179.898301,52.5869 C179.872301,52.5839 179.843301,52.5839 179.814301,52.5839 L158.683301,52.5839 C157.939301,52.5839 157.339301,53.1829 157.339301,53.9269" id="Fill-140" fill="#005A4A"></path>
                <path d="M4.60210124,38.2709 C4.60210124,42.3019 7.88110124,45.5809 11.9121012,45.5809 C15.9431012,45.5809 19.2221012,42.3019 19.2221012,38.2709 C19.2221012,34.2399 15.9431012,30.9609 11.9121012,30.9609 C7.88110124,30.9609 4.60210124,34.2399 4.60210124,38.2709" id="Fill-142" fill="#005A4A"></path>
                <path d="M4.60210124,90.66 C4.60210124,94.691 7.88110124,97.97 11.9121012,97.97 C15.9431012,97.97 19.2221012,94.691 19.2221012,90.66 C19.2221012,86.629 15.9431012,83.35 11.9121012,83.35 C7.88110124,83.35 4.60210124,86.629 4.60210124,90.66" id="Fill-144" fill="#005A4A"></path>
                <path d="M19.2485012,5.7003 L19.2485012,18.4183 C19.2485012,18.9583 18.8115012,19.3953 18.2715012,19.3953 L5.55350124,19.3953 C5.01350124,19.3953 4.57650124,18.9583 4.57650124,18.4183 L4.57650124,5.7003 C4.57650124,5.1603 5.01350124,4.7233 5.55350124,4.7233 L18.2715012,4.7233 C18.8115012,4.7233 19.2485012,5.1603 19.2485012,5.7003" id="Fill-146" fill="#005A4A"></path>
                <path d="M19.2484012,162.9406 L19.2484012,175.6586 C19.2484012,176.1986 18.8114012,176.6356 18.2714012,176.6356 L5.55340124,176.6356 C5.01340124,176.6356 4.57640124,176.1986 4.57640124,175.6586 L4.57640124,162.9406 C4.57640124,162.4006 5.01340124,161.9636 5.55340124,161.9636 L18.2714012,161.9636 C18.8114012,161.9636 19.2484012,162.4006 19.2484012,162.9406" id="Fill-148" fill="#005A4A"></path>
                <path d="M0.035001244,127.1759 L-2.84217094e-14,106.0459 C-0.000998755955,105.3019 0.601001244,104.6989 1.34400124,104.6979 L22.4740012,104.6629 C22.5310012,104.6629 22.5870012,104.6659 22.6420012,104.6709 C23.7390012,104.7829 24.1730012,106.1709 23.3940012,106.9519 L2.32700124,128.0879 C1.54900124,128.8699 0.160001244,128.4409 0.044001244,127.3439 C0.038001244,127.2889 0.035001244,127.2329 0.035001244,127.1759" id="Fill-150" fill="#005A4A"></path>
                <path d="M4.71120124,65.758 C4.70920124,65.737 4.70820124,65.716 4.70820124,65.695 L4.70820124,57.777 C4.70820124,57.498 4.93420124,57.273 5.21220124,57.273 L13.1302012,57.273 C13.1522012,57.273 13.1732012,57.274 13.1932012,57.276 C13.6042012,57.319 13.7662012,57.839 13.4742012,58.131 L5.56620124,66.039 C5.27420124,66.331 4.75420124,66.169 4.71120124,65.758 M2.30820124,75.974 L23.4102012,54.873 C24.1902012,54.093 23.7582012,52.705 22.6612012,52.591 C22.6062012,52.585 22.5502012,52.582 22.4942012,52.582 L1.36320124,52.582 C0.620201244,52.582 0.017201244,53.185 0.017201244,53.928 L0.017201244,75.058 C0.017201244,75.115 0.020201244,75.171 0.026201244,75.226 C0.140201244,76.323 1.52820124,76.755 2.30820124,75.974" id="Fill-152" fill="#005A4A"></path>
                <path d="M19.1135012,141.8118 C19.1155012,141.8328 19.1165012,141.8538 19.1165012,141.8748 L19.1165012,149.7928 C19.1165012,150.0718 18.8905012,150.2968 18.6125012,150.2968 L10.6945012,150.2968 C10.6725012,150.2968 10.6515012,150.2958 10.6315012,150.2938 C10.2205012,150.2508 10.0585012,149.7308 10.3505012,149.4388 L18.2585012,141.5308 C18.5505012,141.2388 19.0705012,141.4008 19.1135012,141.8118 M21.5165012,131.5948 L0.414501244,152.6968 C-0.365498756,153.4768 0.066501244,154.8648 1.16350124,154.9788 C1.21850124,154.9848 1.27450124,154.9878 1.33050124,154.9878 L22.4615012,154.9878 C23.2045012,154.9878 23.8075012,154.3848 23.8075012,153.6418 L23.8075012,132.5118 C23.8075012,132.4548 23.8045012,132.3988 23.7985012,132.3438 C23.6845012,131.2468 22.2965012,130.8148 21.5165012,131.5948" id="Fill-154" fill="#005A4A"></path>
                <path d="M240.582901,143.087 C240.582901,147.118 243.861901,150.397 247.892901,150.397 C251.923901,150.397 255.202901,147.118 255.202901,143.087 C255.202901,139.056 251.923901,135.777 247.892901,135.777 C243.861901,135.777 240.582901,139.056 240.582901,143.087" id="Fill-156" fill="#005A4A"></path>
                <path d="M240.582901,90.6405 C240.582901,94.6715 243.861901,97.9505 247.892901,97.9505 C251.923901,97.9505 255.202901,94.6715 255.202901,90.6405 C255.202901,86.6095 251.923901,83.3305 247.892901,83.3305 C243.861901,83.3305 240.582901,86.6095 240.582901,90.6405" id="Fill-158" fill="#005A4A"></path>
                <path d="M214.362801,38.2515 C214.362801,42.2825 217.641801,45.5615 221.672801,45.5615 C225.703801,45.5615 228.982801,42.2825 228.982801,38.2515 C228.982801,34.2205 225.703801,30.9415 221.672801,30.9415 C217.641801,30.9415 214.362801,34.2205 214.362801,38.2515" id="Fill-160" fill="#005A4A"></path>
                <path d="M195.453001,78.6384 C188.824001,78.6384 183.451001,84.0124 183.451001,90.6404 C183.451001,97.2694 188.824001,102.6424 195.453001,102.6424 C202.082001,102.6424 207.455001,97.2694 207.455001,90.6404 C207.455001,84.0124 202.082001,78.6384 195.453001,78.6384" id="Fill-162" fill="#005A4A"></path>
                <path d="M184.298501,26.1715 L183.385501,26.1715 L183.385501,50.3315 L207.520501,50.3315 C207.027501,37.5165 196.980501,27.1595 184.298501,26.1715" id="Fill-164" fill="#005A4A"></path>
                <path d="M214.362801,90.6405 C214.362801,94.6715 217.641801,97.9505 221.672801,97.9505 C225.703801,97.9505 228.982801,94.6715 228.982801,90.6405 C228.982801,86.6095 225.703801,83.3305 221.672801,83.3305 C217.641801,83.3305 214.362801,86.6095 214.362801,90.6405 M233.699801,90.6405 C233.699801,97.2715 228.304801,102.6665 221.672801,102.6665 C215.041801,102.6665 209.646801,97.2715 209.646801,90.6405 C209.646801,84.0095 215.041801,78.6135 221.672801,78.6135 C228.304801,78.6135 233.699801,84.0095 233.699801,90.6405" id="Fill-166" fill="#005A4A"></path>
                <path d="M240.582901,38.2515 C240.582901,42.2825 243.861901,45.5615 247.892901,45.5615 C251.923901,45.5615 255.202901,42.2825 255.202901,38.2515 C255.202901,34.2205 251.923901,30.9415 247.892901,30.9415 C243.861901,30.9415 240.582901,34.2205 240.582901,38.2515 M259.919901,38.2515 C259.919901,44.8825 254.524901,50.2785 247.892901,50.2785 C241.261901,50.2785 235.866901,44.8825 235.866901,38.2515 C235.866901,31.6205 241.261901,26.2255 247.892901,26.2255 C254.524901,26.2255 259.919901,31.6205 259.919901,38.2515" id="Fill-168" fill="#005A4A"></path>
                <path d="M195.441201,161.9708 C199.471201,161.9708 202.751201,165.2488 202.751201,169.2808 C202.751201,173.3108 199.471201,176.5908 195.441201,176.5908 L195.441201,161.9708 Z M207.466201,169.2808 C207.466201,162.6498 202.072201,157.2538 195.441201,157.2538 L195.441201,157.2788 C188.811201,157.2788 183.439201,162.6528 183.439201,169.2808 C183.439201,175.9088 188.811201,181.2828 195.441201,181.2828 L195.441201,181.3058 C202.072201,181.3058 207.466201,175.9118 207.466201,169.2808 L207.466201,169.2808 Z" id="Fill-170" fill="#005A4A"></path>
                <path d="M247.869401,109.246189 C251.899401,109.2392 255.184401,112.5122 255.191412,116.5442 C255.198401,120.5742 251.923401,123.8602 247.893401,123.8662 L247.869401,109.246189 Z M259.906418,116.5362 C259.895401,109.9052 254.493401,104.5182 247.861401,104.529183 L247.861401,104.5542 C241.231401,104.5652 235.868401,109.9482 235.879384,116.5762 C235.890401,123.2042 241.271401,128.5692 247.901401,128.5582 L247.901401,128.5812 C254.532401,128.5712 259.917401,123.1682 259.906418,116.5362 L259.906418,116.5362 Z" id="Fill-172" fill="#005A4A"></path>
                <path d="M233.712901,54.0212 L233.712901,74.8942 C233.712901,75.7792 232.994901,76.4972 232.108901,76.4972 L211.236901,76.4972 C210.350901,76.4972 209.632901,75.7792 209.632901,74.8942 L209.632901,54.0212 C209.632901,53.1352 210.350901,52.4172 211.236901,52.4172 L232.108901,52.4172 C232.994901,52.4172 233.712901,53.1352 233.712901,54.0212" id="Fill-174" fill="#005A4A"></path>
                <path d="M228.998701,110.1844 L229.019703,122.9024 C229.020701,123.4424 228.583701,123.8804 228.043701,123.8814 L215.325701,123.902402 C214.786701,123.9034 214.348701,123.4664 214.347701,122.9264 L214.3267,110.2084 C214.325701,109.6694 214.762701,109.2304 215.301701,109.2294 L228.019701,109.209398 C228.559701,109.2084 228.997701,109.6444 228.998701,110.1844" id="Fill-176" fill="#005A4A"></path>
                <path d="M255.229701,5.6809 L255.229701,18.3989 C255.229701,18.9389 254.792701,19.3759 254.252701,19.3759 L241.534701,19.3759 C240.994701,19.3759 240.557701,18.9389 240.557701,18.3989 L240.557701,5.6809 C240.557701,5.1409 240.994701,4.7039 241.534701,4.7039 L254.252701,4.7039 C254.792701,4.7039 255.229701,5.1409 255.229701,5.6809" id="Fill-178" fill="#005A4A"></path>
                <path d="M211.091601,131.1786 L232.221601,131.1786 C232.965601,131.1786 233.567601,131.7816 233.567601,132.5246 L233.567601,153.6546 C233.567601,153.7116 233.564601,153.7676 233.559601,153.8226 C233.445601,154.9196 232.056601,155.3506 231.276601,154.5706 L210.175601,133.4696 C209.395601,132.6896 209.826601,131.3016 210.923601,131.1876 C210.978601,131.1816 211.034601,131.1786 211.091601,131.1786" id="Fill-180" fill="#005A4A"></path>
                <path d="M214.471901,170.5612 C214.469901,170.5402 214.468901,170.5192 214.468901,170.4982 L214.468901,162.5802 C214.468901,162.3012 214.694901,162.0762 214.972901,162.0762 L222.890901,162.0762 C222.912901,162.0762 222.933901,162.0772 222.953901,162.0792 C223.364901,162.1222 223.526901,162.6422 223.234901,162.9342 L215.326901,170.8422 C215.034901,171.1342 214.514901,170.9722 214.471901,170.5612 M212.068901,180.7772 L233.170901,159.6762 C233.950901,158.8962 233.518901,157.5082 232.421901,157.3942 C232.366901,157.3882 232.310901,157.3852 232.254901,157.3852 L211.123901,157.3852 C210.380901,157.3852 209.777901,157.9882 209.777901,158.7312 L209.777901,179.8612 C209.777901,179.9182 209.780901,179.9742 209.786901,180.0292 C209.900901,181.1262 211.288901,181.5582 212.068901,180.7772" id="Fill-182" fill="#005A4A"></path>
                <path d="M214.471901,13.321 C214.469901,13.3 214.468901,13.279 214.468901,13.258 L214.468901,5.34 C214.468901,5.061 214.694901,4.836 214.972901,4.836 L222.890901,4.836 C222.912901,4.836 222.933901,4.837 222.953901,4.839 C223.364901,4.882 223.526901,5.402 223.234901,5.694 L215.326901,13.602 C215.034901,13.894 214.514901,13.732 214.471901,13.321 M212.068901,23.538 L233.170901,2.436 C233.950901,1.656 233.518901,0.268 232.421901,0.154 C232.366901,0.148 232.310901,0.145 232.254901,0.145 L211.123901,0.145 C210.380901,0.145 209.777901,0.748 209.777901,1.491 L209.777901,22.621 C209.777901,22.678 209.780901,22.734 209.786901,22.789 C209.900901,23.886 211.288901,24.318 212.068901,23.538" id="Fill-184" fill="#005A4A"></path>
                <path d="M255.094201,63.1764 C255.096201,63.1974 255.097201,63.2184 255.097201,63.2394 L255.097201,71.1574 C255.097201,71.4364 254.871201,71.6614 254.593201,71.6614 L246.675201,71.6614 C246.653201,71.6614 246.632201,71.6604 246.612201,71.6584 C246.201201,71.6154 246.039201,71.0954 246.331201,70.8034 L254.239201,62.8954 C254.531201,62.6034 255.051201,62.7654 255.094201,63.1764 M257.497201,52.9604 L236.395201,74.0614 C235.615201,74.8414 236.047201,76.2294 237.144201,76.3434 C237.199201,76.3494 237.255201,76.3524 237.312201,76.3524 L258.442201,76.3524 C259.185201,76.3524 259.788201,75.7494 259.788201,75.0064 L259.788201,53.8764 C259.788201,53.8194 259.785201,53.7634 259.779201,53.7084 C259.665201,52.6114 258.277201,52.1794 257.497201,52.9604" id="Fill-186" fill="#005A4A"></path>
                <path d="M200.217901,7.8011 L200.217901,16.2661 C200.217901,16.5631 199.976901,16.8051 199.678901,16.8051 L191.213901,16.8051 C191.191901,16.8051 191.168901,16.8041 191.146901,16.8011 C190.707901,16.7561 190.534901,16.2001 190.846901,15.8871 L199.299901,7.4341 C199.612901,7.1221 200.168901,7.2941 200.214901,7.7341 C200.216901,7.7561 200.217901,7.7781 200.217901,7.8011" id="Fill-188" fill="#005A4A"></path>
                <path d="M199.691801,69.2225 L191.226801,69.2225 C190.929801,69.2225 190.687801,68.9815 190.687801,68.6835 L190.687801,60.2185 C190.687801,60.1965 190.688801,60.1735 190.691801,60.1515 C190.736801,59.7125 191.292801,59.5395 191.605801,59.8515 L200.058801,68.3045 C200.370801,68.6175 200.198801,69.1735 199.758801,69.2195 C199.736801,69.2215 199.714801,69.2225 199.691801,69.2225" id="Fill-190" fill="#005A4A"></path>
                <path d="M199.691801,147.8384 L191.226801,147.8384 C190.929801,147.8384 190.687801,147.5974 190.687801,147.2994 L190.687801,138.8344 C190.687801,138.8124 190.688801,138.7894 190.691801,138.7674 C190.736801,138.3284 191.292801,138.1554 191.605801,138.4674 L200.058801,146.9204 C200.371801,147.2334 200.198801,147.7894 199.758801,147.8354 C199.736801,147.8374 199.714801,147.8384 199.691801,147.8384" id="Fill-192" fill="#005A4A"></path>
                <path d="M319.217301,18.399 L319.217301,5.681 C319.217301,5.141 319.654301,4.704 320.194301,4.704 L326.553301,4.704 L326.553301,19.376 L320.194301,19.376 C319.654301,19.376 319.217301,18.939 319.217301,18.399 M314.513301,1.604 L314.513301,22.476 C314.513301,23.362 315.231301,24.08 316.117301,24.08 L336.989301,24.08 C337.875301,24.08 338.593301,23.362 338.593301,22.476 L338.593301,1.604 C338.593301,0.718 337.875301,-4.26325641e-14 336.989301,-4.26325641e-14 L316.117301,-4.26325641e-14 C315.231301,-4.26325641e-14 314.513301,0.718 314.513301,1.604" id="Fill-194" fill="#005A4A"></path>
                <path d="M241.534101,161.944 L254.252101,161.944 C254.792101,161.944 255.229101,162.381 255.229101,162.921 L255.229101,169.28 L240.557101,169.28 L240.557101,162.921 C240.557101,162.381 240.994101,161.944 241.534101,161.944 M258.329101,157.24 L237.457101,157.24 C236.571101,157.24 235.853101,157.958 235.853101,158.844 L235.853101,179.716 C235.853101,180.602 236.571101,181.32 237.457101,181.32 L258.329101,181.32 C259.215101,181.32 259.933101,180.602 259.933101,179.716 L259.933101,158.844 C259.933101,157.958 259.215101,157.24 258.329101,157.24" id="Fill-196" fill="#005A4A"></path>
                <path d="M184.890801,128.4663 C184.855801,128.4663 184.823801,128.4663 184.791801,128.4633 C184.852801,128.4693 184.912801,128.4693 184.973801,128.4663 L184.890801,128.4663 Z" id="Fill-198" fill="#2E2F7D"></path>
                <path d="M183.583701,127.3235 C183.580701,127.3045 183.580701,127.2855 183.580701,127.2655 C183.606701,127.5355 183.706701,127.7915 183.870701,127.9995 C183.715701,127.8205 183.612701,127.5925 183.583701,127.3235" id="Fill-200" fill="#2E2F7D"></path>
                <path d="M207.329101,106.0376 C207.332101,105.9826 207.332101,105.9256 207.326101,105.8706 C207.329101,105.8966 207.329101,105.9256 207.329101,105.9546 L207.329101,106.0376 Z" id="Fill-202" fill="#2E2F7D"></path>
                <path d="M206.124101,104.6477 C206.143101,104.6477 206.162101,104.6477 206.182101,104.6507 C206.451101,104.6797 206.679101,104.7817 206.859101,104.9347 C206.650101,104.7717 206.393101,104.6727 206.124101,104.6477" id="Fill-204" fill="#2E2F7D"></path>
                <path d="M184.781801,128.4633 C184.512801,128.4383 184.255801,128.3393 184.046801,128.1763 C184.226801,128.3293 184.454801,128.4313 184.723801,128.4603 C184.743801,128.4603 184.762801,128.4633 184.781801,128.4633 M183.580801,127.2403 C183.573801,127.1853 183.573801,127.1283 183.576801,127.0733 L183.576801,127.1563 C183.576801,127.1853 183.576801,127.2143 183.580801,127.2403 M207.321801,105.7873 C207.292801,105.5183 207.189801,105.2903 207.035801,105.1113 C207.199801,105.3193 207.299801,105.5763 207.325801,105.8453 C207.325801,105.8263 207.325801,105.8063 207.321801,105.7873 M206.098801,104.6473 C206.072801,104.6443 206.043801,104.6443 206.014801,104.6443 L205.931801,104.6453 C205.985801,104.6413 206.043801,104.6413 206.098801,104.6473" id="Fill-206" fill="#2E2F7D"></path>
                <path d="M202.644401,110.4485 C202.647401,110.4675 202.668405,123.2445 202.668405,123.2445 C202.669401,123.5205 202.445401,123.7485 202.166401,123.7495 C202.166401,123.7495 189.409401,123.7705 189.390401,123.7665 C188.979401,123.7255 188.815401,123.2035 189.109401,122.9115 L201.787401,110.1705 C202.079401,109.8755 202.602401,110.0385 202.644401,110.4485 M183.5424,106.0255 L183.577401,127.1565 C183.577401,127.1855 183.577401,127.2145 183.580401,127.2405 L183.580401,127.2655 C183.606401,127.5355 183.706401,127.7915 183.870401,127.9995 C183.924401,128.0635 183.982401,128.1245 184.047401,128.1755 C184.255401,128.3395 184.512401,128.4375 184.781401,128.4635 L184.791401,128.4635 C184.823401,128.4665 184.855401,128.4665 184.890401,128.4665 L206.022401,128.4315 C206.766401,128.4305 207.365401,127.8295 207.363406,127.0855 L207.329401,105.9545 C207.329401,105.9255 207.328401,105.8965 207.325401,105.8705 C207.328401,105.8615 207.328401,105.8515 207.325401,105.8455 C207.299401,105.5755 207.199401,105.3195 207.035401,105.1115 C206.984401,105.0475 206.923401,104.9895 206.859401,104.9355 C206.650401,104.7715 206.393401,104.6725 206.124401,104.6475 L206.098401,104.6475 C206.072401,104.6445 206.044401,104.6445 206.015401,104.6445 L184.883401,104.6795 C184.139401,104.6805 183.541401,105.2815 183.5424,106.0255" id="Fill-208" fill="#005A4A"></path>
                <path d="M281.423501,12.0399 C281.423501,8.0089 278.144501,4.7299 274.113501,4.7299 C270.082501,4.7299 266.803501,8.0089 266.803501,12.0399 C266.803501,16.0709 270.082501,19.3499 274.113501,19.3499 C278.144501,19.3499 281.423501,16.0709 281.423501,12.0399" id="Fill-210" fill="#005A4A"></path>
                <path d="M281.423501,169.2801 C281.423501,165.2491 278.144501,161.9701 274.113501,161.9701 C270.082501,161.9701 266.803501,165.2491 266.803501,169.2801 C266.803501,173.3111 270.082501,176.5901 274.113501,176.5901 C278.144501,176.5901 281.423501,173.3111 281.423501,169.2801 M262.086501,169.2801 C262.086501,162.6491 267.481501,157.2531 274.113501,157.2531 C280.744501,157.2531 286.139501,162.6491 286.139501,169.2801 C286.139501,175.9111 280.744501,181.3061 274.113501,181.3061 C267.481501,181.3061 262.086501,175.9111 262.086501,169.2801" id="Fill-212" fill="#005A4A"></path>
                <path d="M272.820301,109.3565 C272.841301,109.3545 272.862301,109.3535 272.883301,109.3535 L280.801301,109.340497 C281.080301,109.3395 281.306301,109.5655 281.306301,109.8435 L281.319301,117.7615 C281.319301,117.7835 281.318301,117.8045 281.316301,117.8245 C281.274301,118.2355 280.754301,118.3985 280.461301,118.1065 L272.541301,110.2125 C272.248301,109.9205 272.409301,109.3995 272.820301,109.3565 M262.600301,106.9705 L283.736301,128.0375 C284.517301,128.8155 285.905301,128.3825 286.017301,127.2845 C286.022301,127.2295 286.025301,127.1735 286.025301,127.1175 L285.990301,105.9865 C285.989301,105.2435 285.386301,104.6425 284.642301,104.643499 L263.512301,104.6785 C263.455301,104.6785 263.399301,104.6815 263.344301,104.6875 C262.247301,104.8025 261.818301,106.1915 262.600301,106.9705" id="Fill-214" fill="#005A4A"></path>
                <path d="M278.878201,60.2187 L278.878201,68.6837 C278.878201,68.9807 278.637201,69.2227 278.339201,69.2227 L269.874201,69.2227 C269.852201,69.2227 269.829201,69.2217 269.807201,69.2187 C269.368201,69.1737 269.195201,68.6177 269.507201,68.3047 L277.960201,59.8517 C278.273201,59.5397 278.829201,59.7117 278.875201,60.1517 C278.877201,60.1737 278.878201,60.1957 278.878201,60.2187" id="Fill-216" fill="#005A4A"></path>
                <path d="M269.874401,138.3084 L278.339401,138.3084 C278.636401,138.3084 278.878401,138.5494 278.878401,138.8474 L278.878401,147.3124 C278.878401,147.3344 278.877401,147.3574 278.874401,147.3794 C278.829401,147.8184 278.273401,147.9914 277.960401,147.6794 L269.507401,139.2264 C269.194401,138.9134 269.367401,138.3574 269.807401,138.3114 C269.829401,138.3094 269.851401,138.3084 269.874401,138.3084" id="Fill-218" fill="#005A4A"></path>
                <path d="M266.777101,96.9996 L266.777101,84.2816 C266.777101,83.7416 267.214101,83.3046 267.754101,83.3046 L274.113101,83.3046 L274.113101,97.9766 L267.754101,97.9766 C267.214101,97.9766 266.777101,97.5396 266.777101,96.9996 M262.073101,80.2046 L262.073101,101.0766 C262.073101,101.9626 262.791101,102.6806 263.677101,102.6806 L284.549101,102.6806 C285.435101,102.6806 286.153101,101.9626 286.153101,101.0766 L286.153101,80.2046 C286.153101,79.3186 285.435101,78.6006 284.549101,78.6006 L263.677101,78.6006 C262.791101,78.6006 262.073101,79.3186 262.073101,80.2046" id="Fill-220" fill="#005A4A"></path>
                <path d="M284.694901,26.3581 C284.729901,26.3581 284.761901,26.3581 284.793901,26.3611 C284.732901,26.3551 284.672901,26.3551 284.611901,26.3581 L284.694901,26.3581 Z" id="Fill-222" fill="#2E2F7D"></path>
                <path d="M286.000201,27.503 C286.003201,27.522 286.003201,27.541 286.003201,27.561 C285.978201,27.291 285.878201,27.035 285.715201,26.826 C285.869201,27.006 285.971201,27.234 286.000201,27.503" id="Fill-224" fill="#2E2F7D"></path>
                <path d="M262.219801,48.7498 C262.216801,48.8048 262.216801,48.8618 262.222801,48.9168 C262.219801,48.8908 262.219801,48.8618 262.219801,48.8328 L262.219801,48.7498 Z" id="Fill-226" fill="#2E2F7D"></path>
                <path d="M263.422501,50.1417 C263.403501,50.1417 263.383501,50.1417 263.364501,50.1387 C263.095501,50.1097 262.867501,50.0067 262.688501,49.8527 C262.896501,50.0167 263.153501,50.1157 263.422501,50.1417" id="Fill-228" fill="#2E2F7D"></path>
                <path d="M284.803901,26.3613 C285.072901,26.3873 285.329901,26.4863 285.537901,26.6503 C285.358901,26.4963 285.130901,26.3933 284.861901,26.3643 C284.842901,26.3643 284.822901,26.3613 284.803901,26.3613 M286.002901,27.5863 C286.009901,27.6413 286.009901,27.6983 286.006901,27.7533 L286.006901,27.6703 C286.006901,27.6413 286.006901,27.6123 286.002901,27.5863 M262.225901,49.0003 C262.254901,49.2693 262.357901,49.4973 262.511901,49.6763 C262.347901,49.4683 262.248901,49.2113 262.222901,48.9423 C262.222901,48.9613 262.222901,48.9803 262.225901,49.0003 M263.447901,50.1413 C263.473901,50.1453 263.502901,50.1453 263.531901,50.1453 L263.614901,50.1453 C263.559901,50.1483 263.502901,50.1483 263.447901,50.1413" id="Fill-230" fill="#2E2F7D"></path>
                <path d="M266.911701,44.3466 C266.908701,44.3276 266.908701,31.5506 266.908701,31.5506 C266.908701,31.2746 267.132701,31.0466 267.411701,31.0466 C267.411701,31.0466 280.168701,31.0466 280.187701,31.0496 C280.598701,31.0916 280.761701,31.6146 280.466701,31.9066 L267.767701,44.6256 C267.475701,44.9206 266.953701,44.7576 266.911701,44.3466 M286.006701,48.8016 L286.006701,27.6696 C286.006701,27.6406 286.006701,27.6116 286.003701,27.5866 L286.003701,27.5606 C285.977701,27.2916 285.878701,27.0346 285.714701,26.8266 C285.660701,26.7626 285.602701,26.7016 285.538701,26.6496 C285.329701,26.4866 285.073701,26.3866 284.803701,26.3616 L284.794701,26.3616 C284.762701,26.3586 284.729701,26.3586 284.694701,26.3586 L263.563701,26.3586 C262.819701,26.3586 262.219701,26.9576 262.219701,27.7016 L262.219701,48.8336 C262.219701,48.8626 262.219701,48.8906 262.222701,48.9166 C262.219701,48.9266 262.219701,48.9356 262.222701,48.9426 C262.248701,49.2116 262.347701,49.4686 262.511701,49.6766 C262.562701,49.7406 262.623701,49.7986 262.687701,49.8526 C262.896701,50.0166 263.152701,50.1156 263.422701,50.1416 L263.447701,50.1416 C263.473701,50.1446 263.502701,50.1446 263.531701,50.1446 L284.662701,50.1446 C285.406701,50.1446 286.006701,49.5456 286.006701,48.8016" id="Fill-232" fill="#005A4A"></path>
                <path d="M293.023101,38.2515 C293.023101,42.2825 296.302101,45.5615 300.333101,45.5615 C304.364101,45.5615 307.643101,42.2825 307.643101,38.2515 C307.643101,34.2205 304.364101,30.9415 300.333101,30.9415 C296.302101,30.9415 293.023101,34.2205 293.023101,38.2515" id="Fill-234" fill="#005A4A"></path>
                <path d="M293.023101,90.6405 C293.023101,94.6715 296.302101,97.9505 300.333101,97.9505 C304.364101,97.9505 307.643101,94.6715 307.643101,90.6405 C307.643101,86.6095 304.364101,83.3305 300.333101,83.3305 C296.302101,83.3305 293.023101,86.6095 293.023101,90.6405" id="Fill-236" fill="#005A4A"></path>
                <path d="M319.243201,143.0734 C319.243201,147.1044 322.522201,150.3834 326.553201,150.3834 C330.584201,150.3834 333.863201,147.1044 333.863201,143.0734 C333.863201,139.0424 330.584201,135.7634 326.553201,135.7634 C322.522201,135.7634 319.243201,139.0424 319.243201,143.0734" id="Fill-238" fill="#005A4A"></path>
                <path d="M333.862701,64.4458 C333.862701,68.4758 330.584701,71.7558 326.552701,71.7558 C322.522701,71.7558 319.242701,68.4758 319.242701,64.4458 L333.862701,64.4458 Z M326.552701,76.4708 C333.183701,76.4708 338.579701,71.0768 338.579701,64.4458 L338.554701,64.4458 C338.554701,57.8158 333.180701,52.4438 326.552701,52.4438 C319.924701,52.4438 314.550701,57.8158 314.550701,64.4458 L314.526701,64.4458 C314.526701,71.0768 319.921701,76.4708 326.552701,76.4708 L326.552701,76.4708 Z" id="Fill-240" fill="#005A4A"></path>
                <g id="Group-244" transform="translate(313.664301, 104.130600)">
                    <mask id="mask-2" fill="white">
                        <use xlink:href="#path-1"></use>
                    </mask>
                    <g id="Clip-243"></g>
                    <path d="M19.236,5.07839829 C19.776,5.0774 20.214,5.5144 20.215,6.0534 L20.236,18.7714 C20.236,19.3114 19.8,19.7494 19.26,19.7504 L6.542,19.7714017 C6.002,19.7724 5.564,19.3354 5.563,18.7964 L5.54299828,6.07839829 C5.542,5.5384 5.978,5.1004 6.518,5.0994 L19.236,5.07839829 Z M0.831998954,2.0084 L0.866,22.8814 C0.868,23.7664 1.587,24.4834 2.473,24.482401 L23.345,24.4474 C24.231,24.4464 24.948,23.7274 24.9460042,22.8414 L24.912,1.9684 C24.91,1.0834 24.191,0.3664 23.306,0.367398955 L2.433,0.4024 C1.547,0.4034 0.831,1.1224 0.831998954,2.0084 L0.831998954,2.0084 Z" id="Fill-242" fill="#005A4A" mask="url(#mask-2)"></path>
                </g>
                <path d="M333.889501,84.2815 L333.889501,96.9995 C333.889501,97.5395 333.452501,97.9765 332.912501,97.9765 L320.194501,97.9765 C319.654501,97.9765 319.217501,97.5395 319.217501,96.9995 L319.217501,84.2815 C319.217501,83.7415 319.654501,83.3045 320.194501,83.3045 L332.912501,83.3045 C333.452501,83.3045 333.889501,83.7415 333.889501,84.2815" id="Fill-245" fill="#005A4A"></path>
                <path d="M307.669401,5.6809 L307.669401,18.3989 C307.669401,18.9389 307.232401,19.3759 306.692401,19.3759 L293.974401,19.3759 C293.434401,19.3759 292.997401,18.9389 292.997401,18.3989 L292.997401,5.6809 C292.997401,5.1409 293.434401,4.7039 293.974401,4.7039 L306.692401,4.7039 C307.232401,4.7039 307.669401,5.1409 307.669401,5.6809" id="Fill-247" fill="#005A4A"></path>
                <path d="M307.669401,162.9211 L307.669401,175.6391 C307.669401,176.1791 307.232401,176.6161 306.692401,176.6161 L293.974401,176.6161 C293.434401,176.6161 292.997401,176.1791 292.997401,175.6391 L292.997401,162.9211 C292.997401,162.3811 293.434401,161.9441 293.974401,161.9441 L306.692401,161.9441 C307.232401,161.9441 307.669401,162.3811 307.669401,162.9211" id="Fill-249" fill="#005A4A"></path>
                <path d="M288.455901,127.1564 L288.4209,106.0264 C288.419901,105.2824 289.021901,104.6794 289.764901,104.6784 L310.894901,104.6434 C310.951901,104.6434 311.007901,104.6464 311.062901,104.6514 C312.159901,104.7634 312.593901,106.1514 311.814901,106.9324 L290.747901,128.0684 C289.969901,128.8504 288.580901,128.4214 288.464901,127.3244 C288.458901,127.2694 288.455901,127.2134 288.455901,127.1564" id="Fill-251" fill="#005A4A"></path>
                <path d="M293.132201,65.7386 C293.130201,65.7176 293.129201,65.6966 293.129201,65.6756 L293.129201,57.7576 C293.129201,57.4786 293.355201,57.2536 293.633201,57.2536 L301.551201,57.2536 C301.573201,57.2536 301.593201,57.2546 301.614201,57.2566 C302.025201,57.2996 302.187201,57.8196 301.895201,58.1116 L293.987201,66.0196 C293.695201,66.3116 293.175201,66.1496 293.132201,65.7386 M290.729201,75.9556 L311.831201,54.8536 C312.611201,54.0736 312.179201,52.6856 311.082201,52.5716 C311.027201,52.5656 310.971201,52.5626 310.914201,52.5626 L289.784201,52.5626 C289.041201,52.5626 288.438201,53.1656 288.438201,53.9086 L288.438201,75.0386 C288.438201,75.0956 288.441201,75.1516 288.447201,75.2066 C288.561201,76.3036 289.949201,76.7356 290.729201,75.9556" id="Fill-253" fill="#005A4A"></path>
                <path d="M307.534401,141.7923 C307.536401,141.8133 307.537401,141.8343 307.537401,141.8553 L307.537401,149.7733 C307.537401,150.0523 307.311401,150.2773 307.033401,150.2773 L299.115401,150.2773 C299.093401,150.2773 299.072401,150.2763 299.052401,150.2743 C298.641401,150.2313 298.479401,149.7113 298.771401,149.4193 L306.679401,141.5113 C306.971401,141.2193 307.491401,141.3813 307.534401,141.7923 M309.937401,131.5763 L288.835401,152.6773 C288.055401,153.4573 288.487401,154.8453 289.584401,154.9593 C289.639401,154.9653 289.695401,154.9683 289.751401,154.9683 L310.882401,154.9683 C311.625401,154.9683 312.228401,154.3653 312.228401,153.6223 L312.228401,132.4923 C312.228401,132.4353 312.225401,132.3793 312.219401,132.3243 C312.105401,131.2273 310.717401,130.7953 309.937401,131.5763" id="Fill-255" fill="#005A4A"></path>
                <path d="M330.792201,43.0164 L322.327201,43.0164 C322.030201,43.0164 321.788201,42.7754 321.788201,42.4774 L321.788201,34.0124 C321.788201,33.9904 321.789201,33.9674 321.792201,33.9454 C321.837201,33.5064 322.393201,33.3334 322.706201,33.6454 L331.159201,42.0984 C331.471201,42.4114 331.299201,42.9674 330.859201,43.0134 C330.837201,43.0154 330.815201,43.0164 330.792201,43.0164" id="Fill-257" fill="#005A4A"></path>
                <path d="M332.912401,176.6162 L320.194401,176.6162 C319.654401,176.6162 319.217401,176.1792 319.217401,175.6392 L319.217401,169.2802 L333.889401,169.2802 L333.889401,175.6392 C333.889401,176.1792 333.452401,176.6162 332.912401,176.6162 M316.117401,181.3202 L336.989401,181.3202 C337.875401,181.3202 338.593401,180.6022 338.593401,179.7162 L338.593401,158.8442 C338.593401,157.9582 337.875401,157.2402 336.989401,157.2402 L316.117401,157.2402 C315.231401,157.2402 314.513401,157.9582 314.513401,158.8442 L314.513401,179.7162 C314.513401,180.6022 315.231401,181.3202 316.117401,181.3202" id="Fill-259" fill="#005A4A"></path>
            </g>
        </g>
    </g>
</svg>