<?xml version="1.0" encoding="UTF-8"?>
<svg width="779px" height="161px" viewBox="0 0 779 161" version="1.1" xmlns="http://www.w3.org/2000/svg" xmlns:xlink="http://www.w3.org/1999/xlink">
    <!-- Generator: Sketch 62 (91390) - https://sketch.com -->
    <title>MILLIGRAM LOGO</title>
    <desc>Created with Sketch.</desc>
    <g id="Page-1" stroke="none" stroke-width="1" fill="none" fill-rule="evenodd">
        <g id="MILLIGRAM" transform="translate(-32.000000, -41.000000)">
            <g id="MILLIGRAM-LOGO" transform="translate(421.500000, 122.000000) rotate(-270.000000) translate(-421.500000, -122.000000) translate(341.000000, -267.000000)">
                <polygon id="Fill-3" fill="#002885" points="0.3475 778 160.3475 778 160.3475 0 0.3475 0"></polygon>
                <g id="Group-22" transform="translate(62.000000, 244.000000)" fill="#FFFFFF">
                    <path d="M14.7784,102.7507 C14.7784,100.7107 15.0214,98.7037 14.7184,96.7827 C14.3104,94.1917 12.1954,92.5507 9.7624,92.4477 C7.3754,92.3467 5.2424,93.5867 4.7134,95.9397 C4.2204,98.1267 4.2924,100.4407 4.1124,102.7507 L14.7784,102.7507 Z M0.5284,106.6057 C0.6764,102.8277 0.5354,99.1007 1.0424,95.4647 C1.6094,91.3967 4.6614,88.7937 8.3164,88.5207 C12.7194,88.1917 15.9144,90.1797 17.4764,94.2157 C17.5864,94.4977 17.7094,94.7737 17.8334,95.0707 C27.3204,87.2447 39.0124,66.6967 31.2644,46.1117 C32.2324,45.6787 33.2094,45.2407 34.4684,44.6777 C35.0394,46.6557 35.7054,48.5097 36.1054,50.4197 C39.2864,65.5967 35.5054,79.1377 26.1974,91.2637 C24.0974,93.9997 21.5794,96.4257 19.1514,98.8937 C17.9704,100.0937 18.8594,101.3867 18.4164,102.7357 L30.3774,102.7357 L30.3774,106.6057 L0.5284,106.6057 Z" id="Fill-4"></path>
                    <path d="M5.2685,30.9297 L30.3885,30.9297 L30.3885,34.5217 L0.6705,34.5217 C0.6705,32.7447 0.6175,30.9977 0.7155,29.2597 C0.7345,28.9157 1.2775,28.4897 1.6745,28.2927 C8.5465,24.8817 15.4345,21.5007 22.3175,18.1117 C22.6865,17.9307 23.0475,17.7327 23.6365,17.4257 C23.0165,17.1067 22.6195,16.8947 22.2155,16.6967 C15.3245,13.3217 8.4365,9.9397 1.5345,6.5887 C0.8815,6.2717 0.6255,5.8997 0.6495,5.1687 C0.7045,3.5397 0.6675,1.9087 0.6675,0.2017 L30.3785,0.2017 L30.3785,3.9557 L5.0455,3.9557 C5.0245,4.0617 5.0025,4.1667 4.9815,4.2727 C13.6545,8.5917 22.3275,12.9097 31.0005,17.2287 C31.0075,17.3727 31.0135,17.5167 31.0205,17.6607 C22.4105,21.9847 13.8005,26.3097 5.1905,30.6337 C5.2165,30.7317 5.2425,30.8307 5.2685,30.9297" id="Fill-6"></path>
                    <path d="M30.3096,287.314 L30.3096,290.94 L0.6596,290.94 C0.6596,289.129 0.6226,287.311 0.6986,285.498 C0.7106,285.214 1.1956,284.862 1.5366,284.693 C8.4136,281.288 15.3006,277.905 22.1856,274.517 C22.5876,274.32 22.9856,274.115 23.5696,273.822 C23.0076,273.513 22.6516,273.3 22.2806,273.118 C15.3926,269.737 8.5106,266.346 1.6056,263.002 C0.8526,262.637 0.6046,262.211 0.6356,261.406 C0.6956,259.821 0.6536,258.233 0.6536,256.576 C1.1636,256.551 1.5426,256.515 1.9226,256.515 C10.9676,256.512 20.0116,256.535 29.0556,256.484933 C30.1956,256.479 30.4166,256.875 30.3976,257.891 C30.3536,260.322 30.3946,260.322 27.9946,260.322 C20.7436,260.323 13.4916,260.323 6.2406,260.323 L4.9796,260.323 C4.9506,260.398 4.9226,260.473 4.8946,260.547 C5.2026,260.725 5.5026,260.919 5.8206,261.078 C13.6996,265 21.5806,268.918 29.4606,272.837 C29.6706,272.941 29.9016,273.013 30.0876,273.149 C30.3536,273.344 30.5876,273.585 30.8356,273.806 C30.5926,274.027 30.3826,274.314 30.0996,274.46 C27.9866,275.546 25.8616,276.608 23.7366,277.671 C17.8856,280.601 12.0316,283.527 6.1806,286.459 C5.8256,286.638 5.4886,286.854 5.2236,287.314 L30.3096,287.314 Z" id="Fill-8"></path>
                    <path d="M18.649,133.3391 L15.175,133.3391 C15.137,133.0011 15.069,132.6701 15.068,132.3401 C15.06,128.9871 15.088,125.6341 15.046,122.2821 C15.036,121.4121 15.318,121.1321 16.184,121.141843 C19.536,121.1801 22.889,121.1371 26.241,121.1811 C26.677,121.1871 27.307,121.4001 27.512,121.7281 C31.105,127.4581 32.14,133.5811 29.422,139.8831 C27.095,145.2801 22.507,147.7571 16.779,148.0361 C7.269,148.4991 0.534,142.1261 0.29,132.6001 C0.203,129.1901 0.856,125.9461 2.304,122.8491 C2.631,122.1501 3.025,121.8481 3.811,121.8991 C4.856,121.9671 5.909,121.9161 7.228,121.9161 C6.911,122.4981 6.68,122.9121 6.458,123.3301 C4.521,126.9691 3.504,130.7851 4.313,134.9241 C5.316,140.0471 9.801,143.8291 15.054,144.0231 C20.85,144.2361 25.331,141.3081 26.682,136.2371 C27.638,132.6461 27.194,129.1171 25.539,125.7851 C25.352,125.4081 24.746,125.0441 24.314,125.0181 C22.76,124.9261 21.196,125.0151 19.638,124.9681 C18.854,124.9451 18.627,125.2571 18.64,125.9971 C18.672,127.9851 18.65,129.9741 18.649,131.9621 C18.649,132.3821 18.649,132.8021 18.649,133.3391" id="Fill-10"></path>
                    <path d="M5.3811,61.4195 C5.3841,61.5235 5.3881,61.6275 5.3911,61.7325 C8.4111,63.0765 11.4321,64.4205 14.5851,65.8245 L14.5851,57.5055 C11.4281,58.8485 8.4051,60.1335 5.3811,61.4195 M24.3641,49.1465 C24.3641,50.5365 24.4101,51.7345 24.3291,52.9245 C24.3121,53.1905 23.8961,53.5225 23.5901,53.6615 C22.1011,54.3355 20.5981,54.9825 19.0771,55.5795 C18.4091,55.8425 18.1121,56.1945 18.1201,56.9525 C18.1511,60.1075 18.1411,63.2645 18.0961,66.4195 C18.0851,67.1605 18.3321,67.5275 19.0221,67.7965 C20.5441,68.3895 22.0171,69.1095 23.5361,69.7095 C24.1911,69.9675 24.4231,70.3355 24.3851,71.0215 C24.3321,71.9515 24.3721,72.8865 24.3721,74.0225 C23.9111,73.8565 23.5631,73.7585 23.2371,73.6095 C15.9401,70.2855 8.6411,66.9665 1.3641,63.5985 C0.9871,63.4235 0.5991,62.8325 0.5731,62.4125 C0.3971,59.6275 0.4341,59.6375 2.9631,58.5295 C9.7371,55.5625 16.5061,52.5835 23.2771,49.6095 C23.5591,49.4855 23.8431,49.3685 24.3641,49.1465" id="Fill-12"></path>
                    <path d="M26.8002,218.6935 L26.8002,206.1305 C27.8802,206.1305 28.8742,206.0905 29.8592,206.1655 C30.0472,206.1795 30.3482,206.6425 30.3502,206.8995 C30.3802,211.8855 30.3662,216.8715 30.3812162,221.8575 C30.3842,222.5885 29.9702,222.6625 29.4032,222.659584 C27.4562,222.6485 25.5082,222.6555 23.5612,222.6555 C16.4322,222.6565 9.3042,222.6555 2.1762,222.6555 L0.7272,222.6555 L0.7272,218.6935 L26.8002,218.6935 Z" id="Fill-14"></path>
                    <path d="M30.2785,177.4967 C30.3135,177.8637 30.3725,178.2017 30.3735,178.5397 C30.3795,183.2907 30.3695,188.0427 30.386528,192.7947 C30.3885,193.5207 30.2855,193.9357 29.3835,193.932716 C20.0745,193.9047 10.7655,193.9157 1.4565,193.9117 C1.2315,193.9117 1.0075,193.8647 0.7215,193.8337 L0.7215,190.0647 C1.2015,190.0377 1.6875,189.9867 2.1735,189.9867 C9.8855,189.9817 17.5975,189.9837 25.3095,189.9827 C26.8095,189.9827 26.8115,189.9787 26.8115,188.4397 C26.8125,184.8227 26.8125,181.2057 26.8125,177.4967 L30.2785,177.4967 Z" id="Fill-16"></path>
                    <path d="M0.6957,241.487 L0.6957,237.624 C1.1127,237.602 1.4877,237.565 1.8627,237.565 C10.9317,237.562 20.0007,237.578 29.0707,237.54 C30.0777,237.536 30.4207,237.776 30.4037,238.826 C30.3587,241.486 30.4087,241.487 27.7787,241.487 C19.2547,241.487 10.7297,241.487 2.2057,241.487 L0.6957,241.487 Z" id="Fill-18"></path>
                    <polygon id="Fill-20" points="0.708 164.89 30.306 164.89 30.306 161.15 0.708 161.15"></polygon>
                </g>
            </g>
        </g>
    </g>
</svg>