<?xml version="1.0" encoding="UTF-8"?>
<svg width="258px" height="302px" viewBox="0 0 258 302" version="1.1" xmlns="http://www.w3.org/2000/svg" xmlns:xlink="http://www.w3.org/1999/xlink">
    <!-- Generator: Sketch 62 (91390) - https://sketch.com -->
    <title>Group</title>
    <desc>Created with Sketch.</desc>
    <g id="Page-1" stroke="none" stroke-width="1" fill="none" fill-rule="evenodd" stroke-linecap="round">
        <g id="DIGITAL-DESIGN" transform="translate(-496.000000, -136.000000)" stroke="#2E2F7D" stroke-width="2">
            <g id="PATTERN" transform="translate(476.000000, 120.000000)">
                <g id="Group-2" transform="translate(20.000000, 12.000000)">
                    <g id="Group" transform="translate(-34.000000, 5.000000)">
                        <path d="M0,3 C3.167,3 5.51,0 8.333,0 C11.385,0 14,3 16.667,3 C19.833,3 22.177,0 25,0 C28.052,0 30.667,3 33.333,3 C36.5,3 38.844,0 41.667,0 C44.719,0 47.333,3 50,3 C53.167,3 55.51,0 58.333,0 C61.385,0 64,3 66.667,3 C69.833,3 72.177,0 75,0 C78.052,0 80.667,3 83.333,3 C86.5,3 88.844,0 91.667,0 C94.719,0 97.333,3 100,3 C103.167,3 105.51,0 108.333,0 C111.385,0 114,3 116.667,3 C119.833,3 122.177,0 125,0 C128.052,0 130.667,3 133.333,3 C136.5,3 138.844,0 141.667,0 C144.719,0 147.333,3 150,3 C153.167,3 155.51,0 158.333,0 C161.385,0 164,3 166.667,3 C169.833,3 172.177,0 175,0 C178.052,0 180.667,3 183.333,3 C186.5,3 188.844,0 191.667,0 C194.719,0 197.333,3 200,3 C203.167,3 205.51,0 208.333,0 C211.385,0 214,3 216.667,3 C219.833,3 222.177,0 225,0 C228.052,0 230.667,3 233.333,3 C236.5,3 238.844,0 241.667,0 C244.719,0 247.333,3 250,3 C253.167,3 255.51,0 258.333,0 C261.385,0 264,3 266.667,3 C269.833,3 272.177,0 275,0 C278.052,0 280.667,3 283.333,3 C286.5,3 288.844,0 291.667,0 C294.719,0 297.333,3 300,3 C303.167,3 305.51,0 308.333,0 C311.385,0 314,3 316.667,3 C319.833,3 322.177,0 325,0 C328.052,0 330.667,3 333.333,3 C336.5,3 338.844,0 341.667,0 C344.719,0 347.333,3 350,3 C353.167,3 355.51,0 358.333,0 C361.385,0 364,3 366.667,3 C369.833,3 372.177,0 375,0 C378.052,0 380.667,3 383.333,3 C386.5,3 388.844,0 391.667,0 C394.719,0 397.333,3 400,3" id="Stroke-1"></path>
                        <path d="M0,14 C3.167,14 5.51,11 8.333,11 C11.385,11 14,14 16.667,14 C19.833,14 22.177,11 25,11 C28.052,11 30.667,14 33.333,14 C36.5,14 38.844,11 41.667,11 C44.719,11 47.333,14 50,14 C53.167,14 55.51,11 58.333,11 C61.385,11 64,14 66.667,14 C69.833,14 72.177,11 75,11 C78.052,11 80.667,14 83.333,14 C86.5,14 88.844,11 91.667,11 C94.719,11 97.333,14 100,14 C103.167,14 105.51,11 108.333,11 C111.385,11 114,14 116.667,14 C119.833,14 122.177,11 125,11 C128.052,11 130.667,14 133.333,14 C136.5,14 138.844,11 141.667,11 C144.719,11 147.333,14 150,14 C153.167,14 155.51,11 158.333,11 C161.385,11 164,14 166.667,14 C169.833,14 172.177,11 175,11 C178.052,11 180.667,14 183.333,14 C186.5,14 188.844,11 191.667,11 C194.719,11 197.333,14 200,14 C203.167,14 205.51,11 208.333,11 C211.385,11 214,14 216.667,14 C219.833,14 222.177,11 225,11 C228.052,11 230.667,14 233.333,14 C236.5,14 238.844,11 241.667,11 C244.719,11 247.333,14 250,14 C253.167,14 255.51,11 258.333,11 C261.385,11 264,14 266.667,14 C269.833,14 272.177,11 275,11 C278.052,11 280.667,14 283.333,14 C286.5,14 288.844,11 291.667,11 C294.719,11 297.333,14 300,14 C303.167,14 305.51,11 308.333,11 C311.385,11 314,14 316.667,14 C319.833,14 322.177,11 325,11 C328.052,11 330.667,14 333.333,14 C336.5,14 338.844,11 341.667,11 C344.719,11 347.333,14 350,14 C353.167,14 355.51,11 358.333,11 C361.385,11 364,14 366.667,14 C369.833,14 372.177,11 375,11 C378.052,11 380.667,14 383.333,14 C386.5,14 388.844,11 391.667,11 C394.719,11 397.333,14 400,14" id="Stroke-1-Copy"></path>
                        <path d="M0,25 C3.167,25 5.51,22 8.333,22 C11.385,22 14,25 16.667,25 C19.833,25 22.177,22 25,22 C28.052,22 30.667,25 33.333,25 C36.5,25 38.844,22 41.667,22 C44.719,22 47.333,25 50,25 C53.167,25 55.51,22 58.333,22 C61.385,22 64,25 66.667,25 C69.833,25 72.177,22 75,22 C78.052,22 80.667,25 83.333,25 C86.5,25 88.844,22 91.667,22 C94.719,22 97.333,25 100,25 C103.167,25 105.51,22 108.333,22 C111.385,22 114,25 116.667,25 C119.833,25 122.177,22 125,22 C128.052,22 130.667,25 133.333,25 C136.5,25 138.844,22 141.667,22 C144.719,22 147.333,25 150,25 C153.167,25 155.51,22 158.333,22 C161.385,22 164,25 166.667,25 C169.833,25 172.177,22 175,22 C178.052,22 180.667,25 183.333,25 C186.5,25 188.844,22 191.667,22 C194.719,22 197.333,25 200,25 C203.167,25 205.51,22 208.333,22 C211.385,22 214,25 216.667,25 C219.833,25 222.177,22 225,22 C228.052,22 230.667,25 233.333,25 C236.5,25 238.844,22 241.667,22 C244.719,22 247.333,25 250,25 C253.167,25 255.51,22 258.333,22 C261.385,22 264,25 266.667,25 C269.833,25 272.177,22 275,22 C278.052,22 280.667,25 283.333,25 C286.5,25 288.844,22 291.667,22 C294.719,22 297.333,25 300,25 C303.167,25 305.51,22 308.333,22 C311.385,22 314,25 316.667,25 C319.833,25 322.177,22 325,22 C328.052,22 330.667,25 333.333,25 C336.5,25 338.844,22 341.667,22 C344.719,22 347.333,25 350,25 C353.167,25 355.51,22 358.333,22 C361.385,22 364,25 366.667,25 C369.833,25 372.177,22 375,22 C378.052,22 380.667,25 383.333,25 C386.5,25 388.844,22 391.667,22 C394.719,22 397.333,25 400,25" id="Stroke-1-Copy-2"></path>
                        <path d="M0,36 C3.167,36 5.51,33 8.333,33 C11.385,33 14,36 16.667,36 C19.833,36 22.177,33 25,33 C28.052,33 30.667,36 33.333,36 C36.5,36 38.844,33 41.667,33 C44.719,33 47.333,36 50,36 C53.167,36 55.51,33 58.333,33 C61.385,33 64,36 66.667,36 C69.833,36 72.177,33 75,33 C78.052,33 80.667,36 83.333,36 C86.5,36 88.844,33 91.667,33 C94.719,33 97.333,36 100,36 C103.167,36 105.51,33 108.333,33 C111.385,33 114,36 116.667,36 C119.833,36 122.177,33 125,33 C128.052,33 130.667,36 133.333,36 C136.5,36 138.844,33 141.667,33 C144.719,33 147.333,36 150,36 C153.167,36 155.51,33 158.333,33 C161.385,33 164,36 166.667,36 C169.833,36 172.177,33 175,33 C178.052,33 180.667,36 183.333,36 C186.5,36 188.844,33 191.667,33 C194.719,33 197.333,36 200,36 C203.167,36 205.51,33 208.333,33 C211.385,33 214,36 216.667,36 C219.833,36 222.177,33 225,33 C228.052,33 230.667,36 233.333,36 C236.5,36 238.844,33 241.667,33 C244.719,33 247.333,36 250,36 C253.167,36 255.51,33 258.333,33 C261.385,33 264,36 266.667,36 C269.833,36 272.177,33 275,33 C278.052,33 280.667,36 283.333,36 C286.5,36 288.844,33 291.667,33 C294.719,33 297.333,36 300,36 C303.167,36 305.51,33 308.333,33 C311.385,33 314,36 316.667,36 C319.833,36 322.177,33 325,33 C328.052,33 330.667,36 333.333,36 C336.5,36 338.844,33 341.667,33 C344.719,33 347.333,36 350,36 C353.167,36 355.51,33 358.333,33 C361.385,33 364,36 366.667,36 C369.833,36 372.177,33 375,33 C378.052,33 380.667,36 383.333,36 C386.5,36 388.844,33 391.667,33 C394.719,33 397.333,36 400,36" id="Stroke-1-Copy-3"></path>
                        <path d="M0,47 C3.167,47 5.51,44 8.333,44 C11.385,44 14,47 16.667,47 C19.833,47 22.177,44 25,44 C28.052,44 30.667,47 33.333,47 C36.5,47 38.844,44 41.667,44 C44.719,44 47.333,47 50,47 C53.167,47 55.51,44 58.333,44 C61.385,44 64,47 66.667,47 C69.833,47 72.177,44 75,44 C78.052,44 80.667,47 83.333,47 C86.5,47 88.844,44 91.667,44 C94.719,44 97.333,47 100,47 C103.167,47 105.51,44 108.333,44 C111.385,44 114,47 116.667,47 C119.833,47 122.177,44 125,44 C128.052,44 130.667,47 133.333,47 C136.5,47 138.844,44 141.667,44 C144.719,44 147.333,47 150,47 C153.167,47 155.51,44 158.333,44 C161.385,44 164,47 166.667,47 C169.833,47 172.177,44 175,44 C178.052,44 180.667,47 183.333,47 C186.5,47 188.844,44 191.667,44 C194.719,44 197.333,47 200,47 C203.167,47 205.51,44 208.333,44 C211.385,44 214,47 216.667,47 C219.833,47 222.177,44 225,44 C228.052,44 230.667,47 233.333,47 C236.5,47 238.844,44 241.667,44 C244.719,44 247.333,47 250,47 C253.167,47 255.51,44 258.333,44 C261.385,44 264,47 266.667,47 C269.833,47 272.177,44 275,44 C278.052,44 280.667,47 283.333,47 C286.5,47 288.844,44 291.667,44 C294.719,44 297.333,47 300,47 C303.167,47 305.51,44 308.333,44 C311.385,44 314,47 316.667,47 C319.833,47 322.177,44 325,44 C328.052,44 330.667,47 333.333,47 C336.5,47 338.844,44 341.667,44 C344.719,44 347.333,47 350,47 C353.167,47 355.51,44 358.333,44 C361.385,44 364,47 366.667,47 C369.833,47 372.177,44 375,44 C378.052,44 380.667,47 383.333,47 C386.5,47 388.844,44 391.667,44 C394.719,44 397.333,47 400,47" id="Stroke-1-Copy-4"></path>
                        <path d="M0,58 C3.167,58 5.51,55 8.333,55 C11.385,55 14,58 16.667,58 C19.833,58 22.177,55 25,55 C28.052,55 30.667,58 33.333,58 C36.5,58 38.844,55 41.667,55 C44.719,55 47.333,58 50,58 C53.167,58 55.51,55 58.333,55 C61.385,55 64,58 66.667,58 C69.833,58 72.177,55 75,55 C78.052,55 80.667,58 83.333,58 C86.5,58 88.844,55 91.667,55 C94.719,55 97.333,58 100,58 C103.167,58 105.51,55 108.333,55 C111.385,55 114,58 116.667,58 C119.833,58 122.177,55 125,55 C128.052,55 130.667,58 133.333,58 C136.5,58 138.844,55 141.667,55 C144.719,55 147.333,58 150,58 C153.167,58 155.51,55 158.333,55 C161.385,55 164,58 166.667,58 C169.833,58 172.177,55 175,55 C178.052,55 180.667,58 183.333,58 C186.5,58 188.844,55 191.667,55 C194.719,55 197.333,58 200,58 C203.167,58 205.51,55 208.333,55 C211.385,55 214,58 216.667,58 C219.833,58 222.177,55 225,55 C228.052,55 230.667,58 233.333,58 C236.5,58 238.844,55 241.667,55 C244.719,55 247.333,58 250,58 C253.167,58 255.51,55 258.333,55 C261.385,55 264,58 266.667,58 C269.833,58 272.177,55 275,55 C278.052,55 280.667,58 283.333,58 C286.5,58 288.844,55 291.667,55 C294.719,55 297.333,58 300,58 C303.167,58 305.51,55 308.333,55 C311.385,55 314,58 316.667,58 C319.833,58 322.177,55 325,55 C328.052,55 330.667,58 333.333,58 C336.5,58 338.844,55 341.667,55 C344.719,55 347.333,58 350,58 C353.167,58 355.51,55 358.333,55 C361.385,55 364,58 366.667,58 C369.833,58 372.177,55 375,55 C378.052,55 380.667,58 383.333,58 C386.5,58 388.844,55 391.667,55 C394.719,55 397.333,58 400,58" id="Stroke-1-Copy-5"></path>
                        <path d="M0,69 C3.167,69 5.51,66 8.333,66 C11.385,66 14,69 16.667,69 C19.833,69 22.177,66 25,66 C28.052,66 30.667,69 33.333,69 C36.5,69 38.844,66 41.667,66 C44.719,66 47.333,69 50,69 C53.167,69 55.51,66 58.333,66 C61.385,66 64,69 66.667,69 C69.833,69 72.177,66 75,66 C78.052,66 80.667,69 83.333,69 C86.5,69 88.844,66 91.667,66 C94.719,66 97.333,69 100,69 C103.167,69 105.51,66 108.333,66 C111.385,66 114,69 116.667,69 C119.833,69 122.177,66 125,66 C128.052,66 130.667,69 133.333,69 C136.5,69 138.844,66 141.667,66 C144.719,66 147.333,69 150,69 C153.167,69 155.51,66 158.333,66 C161.385,66 164,69 166.667,69 C169.833,69 172.177,66 175,66 C178.052,66 180.667,69 183.333,69 C186.5,69 188.844,66 191.667,66 C194.719,66 197.333,69 200,69 C203.167,69 205.51,66 208.333,66 C211.385,66 214,69 216.667,69 C219.833,69 222.177,66 225,66 C228.052,66 230.667,69 233.333,69 C236.5,69 238.844,66 241.667,66 C244.719,66 247.333,69 250,69 C253.167,69 255.51,66 258.333,66 C261.385,66 264,69 266.667,69 C269.833,69 272.177,66 275,66 C278.052,66 280.667,69 283.333,69 C286.5,69 288.844,66 291.667,66 C294.719,66 297.333,69 300,69 C303.167,69 305.51,66 308.333,66 C311.385,66 314,69 316.667,69 C319.833,69 322.177,66 325,66 C328.052,66 330.667,69 333.333,69 C336.5,69 338.844,66 341.667,66 C344.719,66 347.333,69 350,69 C353.167,69 355.51,66 358.333,66 C361.385,66 364,69 366.667,69 C369.833,69 372.177,66 375,66 C378.052,66 380.667,69 383.333,69 C386.5,69 388.844,66 391.667,66 C394.719,66 397.333,69 400,69" id="Stroke-1-Copy-6"></path>
                        <path d="M0,80 C3.167,80 5.51,77 8.333,77 C11.385,77 14,80 16.667,80 C19.833,80 22.177,77 25,77 C28.052,77 30.667,80 33.333,80 C36.5,80 38.844,77 41.667,77 C44.719,77 47.333,80 50,80 C53.167,80 55.51,77 58.333,77 C61.385,77 64,80 66.667,80 C69.833,80 72.177,77 75,77 C78.052,77 80.667,80 83.333,80 C86.5,80 88.844,77 91.667,77 C94.719,77 97.333,80 100,80 C103.167,80 105.51,77 108.333,77 C111.385,77 114,80 116.667,80 C119.833,80 122.177,77 125,77 C128.052,77 130.667,80 133.333,80 C136.5,80 138.844,77 141.667,77 C144.719,77 147.333,80 150,80 C153.167,80 155.51,77 158.333,77 C161.385,77 164,80 166.667,80 C169.833,80 172.177,77 175,77 C178.052,77 180.667,80 183.333,80 C186.5,80 188.844,77 191.667,77 C194.719,77 197.333,80 200,80 C203.167,80 205.51,77 208.333,77 C211.385,77 214,80 216.667,80 C219.833,80 222.177,77 225,77 C228.052,77 230.667,80 233.333,80 C236.5,80 238.844,77 241.667,77 C244.719,77 247.333,80 250,80 C253.167,80 255.51,77 258.333,77 C261.385,77 264,80 266.667,80 C269.833,80 272.177,77 275,77 C278.052,77 280.667,80 283.333,80 C286.5,80 288.844,77 291.667,77 C294.719,77 297.333,80 300,80 C303.167,80 305.51,77 308.333,77 C311.385,77 314,80 316.667,80 C319.833,80 322.177,77 325,77 C328.052,77 330.667,80 333.333,80 C336.5,80 338.844,77 341.667,77 C344.719,77 347.333,80 350,80 C353.167,80 355.51,77 358.333,77 C361.385,77 364,80 366.667,80 C369.833,80 372.177,77 375,77 C378.052,77 380.667,80 383.333,80 C386.5,80 388.844,77 391.667,77 C394.719,77 397.333,80 400,80" id="Stroke-1-Copy-7"></path>
                        <path d="M0,91 C3.167,91 5.51,88 8.333,88 C11.385,88 14,91 16.667,91 C19.833,91 22.177,88 25,88 C28.052,88 30.667,91 33.333,91 C36.5,91 38.844,88 41.667,88 C44.719,88 47.333,91 50,91 C53.167,91 55.51,88 58.333,88 C61.385,88 64,91 66.667,91 C69.833,91 72.177,88 75,88 C78.052,88 80.667,91 83.333,91 C86.5,91 88.844,88 91.667,88 C94.719,88 97.333,91 100,91 C103.167,91 105.51,88 108.333,88 C111.385,88 114,91 116.667,91 C119.833,91 122.177,88 125,88 C128.052,88 130.667,91 133.333,91 C136.5,91 138.844,88 141.667,88 C144.719,88 147.333,91 150,91 C153.167,91 155.51,88 158.333,88 C161.385,88 164,91 166.667,91 C169.833,91 172.177,88 175,88 C178.052,88 180.667,91 183.333,91 C186.5,91 188.844,88 191.667,88 C194.719,88 197.333,91 200,91 C203.167,91 205.51,88 208.333,88 C211.385,88 214,91 216.667,91 C219.833,91 222.177,88 225,88 C228.052,88 230.667,91 233.333,91 C236.5,91 238.844,88 241.667,88 C244.719,88 247.333,91 250,91 C253.167,91 255.51,88 258.333,88 C261.385,88 264,91 266.667,91 C269.833,91 272.177,88 275,88 C278.052,88 280.667,91 283.333,91 C286.5,91 288.844,88 291.667,88 C294.719,88 297.333,91 300,91 C303.167,91 305.51,88 308.333,88 C311.385,88 314,91 316.667,91 C319.833,91 322.177,88 325,88 C328.052,88 330.667,91 333.333,91 C336.5,91 338.844,88 341.667,88 C344.719,88 347.333,91 350,91 C353.167,91 355.51,88 358.333,88 C361.385,88 364,91 366.667,91 C369.833,91 372.177,88 375,88 C378.052,88 380.667,91 383.333,91 C386.5,91 388.844,88 391.667,88 C394.719,88 397.333,91 400,91" id="Stroke-1-Copy-8"></path>
                        <path d="M0,102 C3.167,102 5.51,99 8.333,99 C11.385,99 14,102 16.667,102 C19.833,102 22.177,99 25,99 C28.052,99 30.667,102 33.333,102 C36.5,102 38.844,99 41.667,99 C44.719,99 47.333,102 50,102 C53.167,102 55.51,99 58.333,99 C61.385,99 64,102 66.667,102 C69.833,102 72.177,99 75,99 C78.052,99 80.667,102 83.333,102 C86.5,102 88.844,99 91.667,99 C94.719,99 97.333,102 100,102 C103.167,102 105.51,99 108.333,99 C111.385,99 114,102 116.667,102 C119.833,102 122.177,99 125,99 C128.052,99 130.667,102 133.333,102 C136.5,102 138.844,99 141.667,99 C144.719,99 147.333,102 150,102 C153.167,102 155.51,99 158.333,99 C161.385,99 164,102 166.667,102 C169.833,102 172.177,99 175,99 C178.052,99 180.667,102 183.333,102 C186.5,102 188.844,99 191.667,99 C194.719,99 197.333,102 200,102 C203.167,102 205.51,99 208.333,99 C211.385,99 214,102 216.667,102 C219.833,102 222.177,99 225,99 C228.052,99 230.667,102 233.333,102 C236.5,102 238.844,99 241.667,99 C244.719,99 247.333,102 250,102 C253.167,102 255.51,99 258.333,99 C261.385,99 264,102 266.667,102 C269.833,102 272.177,99 275,99 C278.052,99 280.667,102 283.333,102 C286.5,102 288.844,99 291.667,99 C294.719,99 297.333,102 300,102 C303.167,102 305.51,99 308.333,99 C311.385,99 314,102 316.667,102 C319.833,102 322.177,99 325,99 C328.052,99 330.667,102 333.333,102 C336.5,102 338.844,99 341.667,99 C344.719,99 347.333,102 350,102 C353.167,102 355.51,99 358.333,99 C361.385,99 364,102 366.667,102 C369.833,102 372.177,99 375,99 C378.052,99 380.667,102 383.333,102 C386.5,102 388.844,99 391.667,99 C394.719,99 397.333,102 400,102" id="Stroke-1-Copy-9"></path>
                        <path d="M0,113 C3.167,113 5.51,110 8.333,110 C11.385,110 14,113 16.667,113 C19.833,113 22.177,110 25,110 C28.052,110 30.667,113 33.333,113 C36.5,113 38.844,110 41.667,110 C44.719,110 47.333,113 50,113 C53.167,113 55.51,110 58.333,110 C61.385,110 64,113 66.667,113 C69.833,113 72.177,110 75,110 C78.052,110 80.667,113 83.333,113 C86.5,113 88.844,110 91.667,110 C94.719,110 97.333,113 100,113 C103.167,113 105.51,110 108.333,110 C111.385,110 114,113 116.667,113 C119.833,113 122.177,110 125,110 C128.052,110 130.667,113 133.333,113 C136.5,113 138.844,110 141.667,110 C144.719,110 147.333,113 150,113 C153.167,113 155.51,110 158.333,110 C161.385,110 164,113 166.667,113 C169.833,113 172.177,110 175,110 C178.052,110 180.667,113 183.333,113 C186.5,113 188.844,110 191.667,110 C194.719,110 197.333,113 200,113 C203.167,113 205.51,110 208.333,110 C211.385,110 214,113 216.667,113 C219.833,113 222.177,110 225,110 C228.052,110 230.667,113 233.333,113 C236.5,113 238.844,110 241.667,110 C244.719,110 247.333,113 250,113 C253.167,113 255.51,110 258.333,110 C261.385,110 264,113 266.667,113 C269.833,113 272.177,110 275,110 C278.052,110 280.667,113 283.333,113 C286.5,113 288.844,110 291.667,110 C294.719,110 297.333,113 300,113 C303.167,113 305.51,110 308.333,110 C311.385,110 314,113 316.667,113 C319.833,113 322.177,110 325,110 C328.052,110 330.667,113 333.333,113 C336.5,113 338.844,110 341.667,110 C344.719,110 347.333,113 350,113 C353.167,113 355.51,110 358.333,110 C361.385,110 364,113 366.667,113 C369.833,113 372.177,110 375,110 C378.052,110 380.667,113 383.333,113 C386.5,113 388.844,110 391.667,110 C394.719,110 397.333,113 400,113" id="Stroke-1-Copy-10"></path>
                        <path d="M0,124 C3.167,124 5.51,121 8.333,121 C11.385,121 14,124 16.667,124 C19.833,124 22.177,121 25,121 C28.052,121 30.667,124 33.333,124 C36.5,124 38.844,121 41.667,121 C44.719,121 47.333,124 50,124 C53.167,124 55.51,121 58.333,121 C61.385,121 64,124 66.667,124 C69.833,124 72.177,121 75,121 C78.052,121 80.667,124 83.333,124 C86.5,124 88.844,121 91.667,121 C94.719,121 97.333,124 100,124 C103.167,124 105.51,121 108.333,121 C111.385,121 114,124 116.667,124 C119.833,124 122.177,121 125,121 C128.052,121 130.667,124 133.333,124 C136.5,124 138.844,121 141.667,121 C144.719,121 147.333,124 150,124 C153.167,124 155.51,121 158.333,121 C161.385,121 164,124 166.667,124 C169.833,124 172.177,121 175,121 C178.052,121 180.667,124 183.333,124 C186.5,124 188.844,121 191.667,121 C194.719,121 197.333,124 200,124 C203.167,124 205.51,121 208.333,121 C211.385,121 214,124 216.667,124 C219.833,124 222.177,121 225,121 C228.052,121 230.667,124 233.333,124 C236.5,124 238.844,121 241.667,121 C244.719,121 247.333,124 250,124 C253.167,124 255.51,121 258.333,121 C261.385,121 264,124 266.667,124 C269.833,124 272.177,121 275,121 C278.052,121 280.667,124 283.333,124 C286.5,124 288.844,121 291.667,121 C294.719,121 297.333,124 300,124 C303.167,124 305.51,121 308.333,121 C311.385,121 314,124 316.667,124 C319.833,124 322.177,121 325,121 C328.052,121 330.667,124 333.333,124 C336.5,124 338.844,121 341.667,121 C344.719,121 347.333,124 350,124 C353.167,124 355.51,121 358.333,121 C361.385,121 364,124 366.667,124 C369.833,124 372.177,121 375,121 C378.052,121 380.667,124 383.333,124 C386.5,124 388.844,121 391.667,121 C394.719,121 397.333,124 400,124" id="Stroke-1-Copy-11"></path>
                        <path d="M0,135 C3.167,135 5.51,132 8.333,132 C11.385,132 14,135 16.667,135 C19.833,135 22.177,132 25,132 C28.052,132 30.667,135 33.333,135 C36.5,135 38.844,132 41.667,132 C44.719,132 47.333,135 50,135 C53.167,135 55.51,132 58.333,132 C61.385,132 64,135 66.667,135 C69.833,135 72.177,132 75,132 C78.052,132 80.667,135 83.333,135 C86.5,135 88.844,132 91.667,132 C94.719,132 97.333,135 100,135 C103.167,135 105.51,132 108.333,132 C111.385,132 114,135 116.667,135 C119.833,135 122.177,132 125,132 C128.052,132 130.667,135 133.333,135 C136.5,135 138.844,132 141.667,132 C144.719,132 147.333,135 150,135 C153.167,135 155.51,132 158.333,132 C161.385,132 164,135 166.667,135 C169.833,135 172.177,132 175,132 C178.052,132 180.667,135 183.333,135 C186.5,135 188.844,132 191.667,132 C194.719,132 197.333,135 200,135 C203.167,135 205.51,132 208.333,132 C211.385,132 214,135 216.667,135 C219.833,135 222.177,132 225,132 C228.052,132 230.667,135 233.333,135 C236.5,135 238.844,132 241.667,132 C244.719,132 247.333,135 250,135 C253.167,135 255.51,132 258.333,132 C261.385,132 264,135 266.667,135 C269.833,135 272.177,132 275,132 C278.052,132 280.667,135 283.333,135 C286.5,135 288.844,132 291.667,132 C294.719,132 297.333,135 300,135 C303.167,135 305.51,132 308.333,132 C311.385,132 314,135 316.667,135 C319.833,135 322.177,132 325,132 C328.052,132 330.667,135 333.333,135 C336.5,135 338.844,132 341.667,132 C344.719,132 347.333,135 350,135 C353.167,135 355.51,132 358.333,132 C361.385,132 364,135 366.667,135 C369.833,135 372.177,132 375,132 C378.052,132 380.667,135 383.333,135 C386.5,135 388.844,132 391.667,132 C394.719,132 397.333,135 400,135" id="Stroke-1-Copy-12"></path>
                        <path d="M0,146 C3.167,146 5.51,143 8.333,143 C11.385,143 14,146 16.667,146 C19.833,146 22.177,143 25,143 C28.052,143 30.667,146 33.333,146 C36.5,146 38.844,143 41.667,143 C44.719,143 47.333,146 50,146 C53.167,146 55.51,143 58.333,143 C61.385,143 64,146 66.667,146 C69.833,146 72.177,143 75,143 C78.052,143 80.667,146 83.333,146 C86.5,146 88.844,143 91.667,143 C94.719,143 97.333,146 100,146 C103.167,146 105.51,143 108.333,143 C111.385,143 114,146 116.667,146 C119.833,146 122.177,143 125,143 C128.052,143 130.667,146 133.333,146 C136.5,146 138.844,143 141.667,143 C144.719,143 147.333,146 150,146 C153.167,146 155.51,143 158.333,143 C161.385,143 164,146 166.667,146 C169.833,146 172.177,143 175,143 C178.052,143 180.667,146 183.333,146 C186.5,146 188.844,143 191.667,143 C194.719,143 197.333,146 200,146 C203.167,146 205.51,143 208.333,143 C211.385,143 214,146 216.667,146 C219.833,146 222.177,143 225,143 C228.052,143 230.667,146 233.333,146 C236.5,146 238.844,143 241.667,143 C244.719,143 247.333,146 250,146 C253.167,146 255.51,143 258.333,143 C261.385,143 264,146 266.667,146 C269.833,146 272.177,143 275,143 C278.052,143 280.667,146 283.333,146 C286.5,146 288.844,143 291.667,143 C294.719,143 297.333,146 300,146 C303.167,146 305.51,143 308.333,143 C311.385,143 314,146 316.667,146 C319.833,146 322.177,143 325,143 C328.052,143 330.667,146 333.333,146 C336.5,146 338.844,143 341.667,143 C344.719,143 347.333,146 350,146 C353.167,146 355.51,143 358.333,143 C361.385,143 364,146 366.667,146 C369.833,146 372.177,143 375,143 C378.052,143 380.667,146 383.333,146 C386.5,146 388.844,143 391.667,143 C394.719,143 397.333,146 400,146" id="Stroke-1-Copy-13"></path>
                        <path d="M0,157 C3.167,157 5.51,154 8.333,154 C11.385,154 14,157 16.667,157 C19.833,157 22.177,154 25,154 C28.052,154 30.667,157 33.333,157 C36.5,157 38.844,154 41.667,154 C44.719,154 47.333,157 50,157 C53.167,157 55.51,154 58.333,154 C61.385,154 64,157 66.667,157 C69.833,157 72.177,154 75,154 C78.052,154 80.667,157 83.333,157 C86.5,157 88.844,154 91.667,154 C94.719,154 97.333,157 100,157 C103.167,157 105.51,154 108.333,154 C111.385,154 114,157 116.667,157 C119.833,157 122.177,154 125,154 C128.052,154 130.667,157 133.333,157 C136.5,157 138.844,154 141.667,154 C144.719,154 147.333,157 150,157 C153.167,157 155.51,154 158.333,154 C161.385,154 164,157 166.667,157 C169.833,157 172.177,154 175,154 C178.052,154 180.667,157 183.333,157 C186.5,157 188.844,154 191.667,154 C194.719,154 197.333,157 200,157 C203.167,157 205.51,154 208.333,154 C211.385,154 214,157 216.667,157 C219.833,157 222.177,154 225,154 C228.052,154 230.667,157 233.333,157 C236.5,157 238.844,154 241.667,154 C244.719,154 247.333,157 250,157 C253.167,157 255.51,154 258.333,154 C261.385,154 264,157 266.667,157 C269.833,157 272.177,154 275,154 C278.052,154 280.667,157 283.333,157 C286.5,157 288.844,154 291.667,154 C294.719,154 297.333,157 300,157 C303.167,157 305.51,154 308.333,154 C311.385,154 314,157 316.667,157 C319.833,157 322.177,154 325,154 C328.052,154 330.667,157 333.333,157 C336.5,157 338.844,154 341.667,154 C344.719,154 347.333,157 350,157 C353.167,157 355.51,154 358.333,154 C361.385,154 364,157 366.667,157 C369.833,157 372.177,154 375,154 C378.052,154 380.667,157 383.333,157 C386.5,157 388.844,154 391.667,154 C394.719,154 397.333,157 400,157" id="Stroke-1-Copy-14"></path>
                        <path d="M0,168 C3.167,168 5.51,165 8.333,165 C11.385,165 14,168 16.667,168 C19.833,168 22.177,165 25,165 C28.052,165 30.667,168 33.333,168 C36.5,168 38.844,165 41.667,165 C44.719,165 47.333,168 50,168 C53.167,168 55.51,165 58.333,165 C61.385,165 64,168 66.667,168 C69.833,168 72.177,165 75,165 C78.052,165 80.667,168 83.333,168 C86.5,168 88.844,165 91.667,165 C94.719,165 97.333,168 100,168 C103.167,168 105.51,165 108.333,165 C111.385,165 114,168 116.667,168 C119.833,168 122.177,165 125,165 C128.052,165 130.667,168 133.333,168 C136.5,168 138.844,165 141.667,165 C144.719,165 147.333,168 150,168 C153.167,168 155.51,165 158.333,165 C161.385,165 164,168 166.667,168 C169.833,168 172.177,165 175,165 C178.052,165 180.667,168 183.333,168 C186.5,168 188.844,165 191.667,165 C194.719,165 197.333,168 200,168 C203.167,168 205.51,165 208.333,165 C211.385,165 214,168 216.667,168 C219.833,168 222.177,165 225,165 C228.052,165 230.667,168 233.333,168 C236.5,168 238.844,165 241.667,165 C244.719,165 247.333,168 250,168 C253.167,168 255.51,165 258.333,165 C261.385,165 264,168 266.667,168 C269.833,168 272.177,165 275,165 C278.052,165 280.667,168 283.333,168 C286.5,168 288.844,165 291.667,165 C294.719,165 297.333,168 300,168 C303.167,168 305.51,165 308.333,165 C311.385,165 314,168 316.667,168 C319.833,168 322.177,165 325,165 C328.052,165 330.667,168 333.333,168 C336.5,168 338.844,165 341.667,165 C344.719,165 347.333,168 350,168 C353.167,168 355.51,165 358.333,165 C361.385,165 364,168 366.667,168 C369.833,168 372.177,165 375,165 C378.052,165 380.667,168 383.333,168 C386.5,168 388.844,165 391.667,165 C394.719,165 397.333,168 400,168" id="Stroke-1-Copy-15"></path>
                        <path d="M0,179 C3.167,179 5.51,176 8.333,176 C11.385,176 14,179 16.667,179 C19.833,179 22.177,176 25,176 C28.052,176 30.667,179 33.333,179 C36.5,179 38.844,176 41.667,176 C44.719,176 47.333,179 50,179 C53.167,179 55.51,176 58.333,176 C61.385,176 64,179 66.667,179 C69.833,179 72.177,176 75,176 C78.052,176 80.667,179 83.333,179 C86.5,179 88.844,176 91.667,176 C94.719,176 97.333,179 100,179 C103.167,179 105.51,176 108.333,176 C111.385,176 114,179 116.667,179 C119.833,179 122.177,176 125,176 C128.052,176 130.667,179 133.333,179 C136.5,179 138.844,176 141.667,176 C144.719,176 147.333,179 150,179 C153.167,179 155.51,176 158.333,176 C161.385,176 164,179 166.667,179 C169.833,179 172.177,176 175,176 C178.052,176 180.667,179 183.333,179 C186.5,179 188.844,176 191.667,176 C194.719,176 197.333,179 200,179 C203.167,179 205.51,176 208.333,176 C211.385,176 214,179 216.667,179 C219.833,179 222.177,176 225,176 C228.052,176 230.667,179 233.333,179 C236.5,179 238.844,176 241.667,176 C244.719,176 247.333,179 250,179 C253.167,179 255.51,176 258.333,176 C261.385,176 264,179 266.667,179 C269.833,179 272.177,176 275,176 C278.052,176 280.667,179 283.333,179 C286.5,179 288.844,176 291.667,176 C294.719,176 297.333,179 300,179 C303.167,179 305.51,176 308.333,176 C311.385,176 314,179 316.667,179 C319.833,179 322.177,176 325,176 C328.052,176 330.667,179 333.333,179 C336.5,179 338.844,176 341.667,176 C344.719,176 347.333,179 350,179 C353.167,179 355.51,176 358.333,176 C361.385,176 364,179 366.667,179 C369.833,179 372.177,176 375,176 C378.052,176 380.667,179 383.333,179 C386.5,179 388.844,176 391.667,176 C394.719,176 397.333,179 400,179" id="Stroke-1-Copy-16"></path>
                        <path d="M0,190 C3.167,190 5.51,187 8.333,187 C11.385,187 14,190 16.667,190 C19.833,190 22.177,187 25,187 C28.052,187 30.667,190 33.333,190 C36.5,190 38.844,187 41.667,187 C44.719,187 47.333,190 50,190 C53.167,190 55.51,187 58.333,187 C61.385,187 64,190 66.667,190 C69.833,190 72.177,187 75,187 C78.052,187 80.667,190 83.333,190 C86.5,190 88.844,187 91.667,187 C94.719,187 97.333,190 100,190 C103.167,190 105.51,187 108.333,187 C111.385,187 114,190 116.667,190 C119.833,190 122.177,187 125,187 C128.052,187 130.667,190 133.333,190 C136.5,190 138.844,187 141.667,187 C144.719,187 147.333,190 150,190 C153.167,190 155.51,187 158.333,187 C161.385,187 164,190 166.667,190 C169.833,190 172.177,187 175,187 C178.052,187 180.667,190 183.333,190 C186.5,190 188.844,187 191.667,187 C194.719,187 197.333,190 200,190 C203.167,190 205.51,187 208.333,187 C211.385,187 214,190 216.667,190 C219.833,190 222.177,187 225,187 C228.052,187 230.667,190 233.333,190 C236.5,190 238.844,187 241.667,187 C244.719,187 247.333,190 250,190 C253.167,190 255.51,187 258.333,187 C261.385,187 264,190 266.667,190 C269.833,190 272.177,187 275,187 C278.052,187 280.667,190 283.333,190 C286.5,190 288.844,187 291.667,187 C294.719,187 297.333,190 300,190 C303.167,190 305.51,187 308.333,187 C311.385,187 314,190 316.667,190 C319.833,190 322.177,187 325,187 C328.052,187 330.667,190 333.333,190 C336.5,190 338.844,187 341.667,187 C344.719,187 347.333,190 350,190 C353.167,190 355.51,187 358.333,187 C361.385,187 364,190 366.667,190 C369.833,190 372.177,187 375,187 C378.052,187 380.667,190 383.333,190 C386.5,190 388.844,187 391.667,187 C394.719,187 397.333,190 400,190" id="Stroke-1-Copy-17"></path>
                        <path d="M0,201 C3.167,201 5.51,198 8.333,198 C11.385,198 14,201 16.667,201 C19.833,201 22.177,198 25,198 C28.052,198 30.667,201 33.333,201 C36.5,201 38.844,198 41.667,198 C44.719,198 47.333,201 50,201 C53.167,201 55.51,198 58.333,198 C61.385,198 64,201 66.667,201 C69.833,201 72.177,198 75,198 C78.052,198 80.667,201 83.333,201 C86.5,201 88.844,198 91.667,198 C94.719,198 97.333,201 100,201 C103.167,201 105.51,198 108.333,198 C111.385,198 114,201 116.667,201 C119.833,201 122.177,198 125,198 C128.052,198 130.667,201 133.333,201 C136.5,201 138.844,198 141.667,198 C144.719,198 147.333,201 150,201 C153.167,201 155.51,198 158.333,198 C161.385,198 164,201 166.667,201 C169.833,201 172.177,198 175,198 C178.052,198 180.667,201 183.333,201 C186.5,201 188.844,198 191.667,198 C194.719,198 197.333,201 200,201 C203.167,201 205.51,198 208.333,198 C211.385,198 214,201 216.667,201 C219.833,201 222.177,198 225,198 C228.052,198 230.667,201 233.333,201 C236.5,201 238.844,198 241.667,198 C244.719,198 247.333,201 250,201 C253.167,201 255.51,198 258.333,198 C261.385,198 264,201 266.667,201 C269.833,201 272.177,198 275,198 C278.052,198 280.667,201 283.333,201 C286.5,201 288.844,198 291.667,198 C294.719,198 297.333,201 300,201 C303.167,201 305.51,198 308.333,198 C311.385,198 314,201 316.667,201 C319.833,201 322.177,198 325,198 C328.052,198 330.667,201 333.333,201 C336.5,201 338.844,198 341.667,198 C344.719,198 347.333,201 350,201 C353.167,201 355.51,198 358.333,198 C361.385,198 364,201 366.667,201 C369.833,201 372.177,198 375,198 C378.052,198 380.667,201 383.333,201 C386.5,201 388.844,198 391.667,198 C394.719,198 397.333,201 400,201" id="Stroke-1-Copy-18"></path>
                        <path d="M0,212 C3.167,212 5.51,209 8.333,209 C11.385,209 14,212 16.667,212 C19.833,212 22.177,209 25,209 C28.052,209 30.667,212 33.333,212 C36.5,212 38.844,209 41.667,209 C44.719,209 47.333,212 50,212 C53.167,212 55.51,209 58.333,209 C61.385,209 64,212 66.667,212 C69.833,212 72.177,209 75,209 C78.052,209 80.667,212 83.333,212 C86.5,212 88.844,209 91.667,209 C94.719,209 97.333,212 100,212 C103.167,212 105.51,209 108.333,209 C111.385,209 114,212 116.667,212 C119.833,212 122.177,209 125,209 C128.052,209 130.667,212 133.333,212 C136.5,212 138.844,209 141.667,209 C144.719,209 147.333,212 150,212 C153.167,212 155.51,209 158.333,209 C161.385,209 164,212 166.667,212 C169.833,212 172.177,209 175,209 C178.052,209 180.667,212 183.333,212 C186.5,212 188.844,209 191.667,209 C194.719,209 197.333,212 200,212 C203.167,212 205.51,209 208.333,209 C211.385,209 214,212 216.667,212 C219.833,212 222.177,209 225,209 C228.052,209 230.667,212 233.333,212 C236.5,212 238.844,209 241.667,209 C244.719,209 247.333,212 250,212 C253.167,212 255.51,209 258.333,209 C261.385,209 264,212 266.667,212 C269.833,212 272.177,209 275,209 C278.052,209 280.667,212 283.333,212 C286.5,212 288.844,209 291.667,209 C294.719,209 297.333,212 300,212 C303.167,212 305.51,209 308.333,209 C311.385,209 314,212 316.667,212 C319.833,212 322.177,209 325,209 C328.052,209 330.667,212 333.333,212 C336.5,212 338.844,209 341.667,209 C344.719,209 347.333,212 350,212 C353.167,212 355.51,209 358.333,209 C361.385,209 364,212 366.667,212 C369.833,212 372.177,209 375,209 C378.052,209 380.667,212 383.333,212 C386.5,212 388.844,209 391.667,209 C394.719,209 397.333,212 400,212" id="Stroke-1-Copy-19"></path>
                        <path d="M0,223 C3.167,223 5.51,220 8.333,220 C11.385,220 14,223 16.667,223 C19.833,223 22.177,220 25,220 C28.052,220 30.667,223 33.333,223 C36.5,223 38.844,220 41.667,220 C44.719,220 47.333,223 50,223 C53.167,223 55.51,220 58.333,220 C61.385,220 64,223 66.667,223 C69.833,223 72.177,220 75,220 C78.052,220 80.667,223 83.333,223 C86.5,223 88.844,220 91.667,220 C94.719,220 97.333,223 100,223 C103.167,223 105.51,220 108.333,220 C111.385,220 114,223 116.667,223 C119.833,223 122.177,220 125,220 C128.052,220 130.667,223 133.333,223 C136.5,223 138.844,220 141.667,220 C144.719,220 147.333,223 150,223 C153.167,223 155.51,220 158.333,220 C161.385,220 164,223 166.667,223 C169.833,223 172.177,220 175,220 C178.052,220 180.667,223 183.333,223 C186.5,223 188.844,220 191.667,220 C194.719,220 197.333,223 200,223 C203.167,223 205.51,220 208.333,220 C211.385,220 214,223 216.667,223 C219.833,223 222.177,220 225,220 C228.052,220 230.667,223 233.333,223 C236.5,223 238.844,220 241.667,220 C244.719,220 247.333,223 250,223 C253.167,223 255.51,220 258.333,220 C261.385,220 264,223 266.667,223 C269.833,223 272.177,220 275,220 C278.052,220 280.667,223 283.333,223 C286.5,223 288.844,220 291.667,220 C294.719,220 297.333,223 300,223 C303.167,223 305.51,220 308.333,220 C311.385,220 314,223 316.667,223 C319.833,223 322.177,220 325,220 C328.052,220 330.667,223 333.333,223 C336.5,223 338.844,220 341.667,220 C344.719,220 347.333,223 350,223 C353.167,223 355.51,220 358.333,220 C361.385,220 364,223 366.667,223 C369.833,223 372.177,220 375,220 C378.052,220 380.667,223 383.333,223 C386.5,223 388.844,220 391.667,220 C394.719,220 397.333,223 400,223" id="Stroke-1-Copy-20"></path>
                        <path d="M0,234 C3.167,234 5.51,231 8.333,231 C11.385,231 14,234 16.667,234 C19.833,234 22.177,231 25,231 C28.052,231 30.667,234 33.333,234 C36.5,234 38.844,231 41.667,231 C44.719,231 47.333,234 50,234 C53.167,234 55.51,231 58.333,231 C61.385,231 64,234 66.667,234 C69.833,234 72.177,231 75,231 C78.052,231 80.667,234 83.333,234 C86.5,234 88.844,231 91.667,231 C94.719,231 97.333,234 100,234 C103.167,234 105.51,231 108.333,231 C111.385,231 114,234 116.667,234 C119.833,234 122.177,231 125,231 C128.052,231 130.667,234 133.333,234 C136.5,234 138.844,231 141.667,231 C144.719,231 147.333,234 150,234 C153.167,234 155.51,231 158.333,231 C161.385,231 164,234 166.667,234 C169.833,234 172.177,231 175,231 C178.052,231 180.667,234 183.333,234 C186.5,234 188.844,231 191.667,231 C194.719,231 197.333,234 200,234 C203.167,234 205.51,231 208.333,231 C211.385,231 214,234 216.667,234 C219.833,234 222.177,231 225,231 C228.052,231 230.667,234 233.333,234 C236.5,234 238.844,231 241.667,231 C244.719,231 247.333,234 250,234 C253.167,234 255.51,231 258.333,231 C261.385,231 264,234 266.667,234 C269.833,234 272.177,231 275,231 C278.052,231 280.667,234 283.333,234 C286.5,234 288.844,231 291.667,231 C294.719,231 297.333,234 300,234 C303.167,234 305.51,231 308.333,231 C311.385,231 314,234 316.667,234 C319.833,234 322.177,231 325,231 C328.052,231 330.667,234 333.333,234 C336.5,234 338.844,231 341.667,231 C344.719,231 347.333,234 350,234 C353.167,234 355.51,231 358.333,231 C361.385,231 364,234 366.667,234 C369.833,234 372.177,231 375,231 C378.052,231 380.667,234 383.333,234 C386.5,234 388.844,231 391.667,231 C394.719,231 397.333,234 400,234" id="Stroke-1-Copy-21"></path>
                        <path d="M0,245 C3.167,245 5.51,242 8.333,242 C11.385,242 14,245 16.667,245 C19.833,245 22.177,242 25,242 C28.052,242 30.667,245 33.333,245 C36.5,245 38.844,242 41.667,242 C44.719,242 47.333,245 50,245 C53.167,245 55.51,242 58.333,242 C61.385,242 64,245 66.667,245 C69.833,245 72.177,242 75,242 C78.052,242 80.667,245 83.333,245 C86.5,245 88.844,242 91.667,242 C94.719,242 97.333,245 100,245 C103.167,245 105.51,242 108.333,242 C111.385,242 114,245 116.667,245 C119.833,245 122.177,242 125,242 C128.052,242 130.667,245 133.333,245 C136.5,245 138.844,242 141.667,242 C144.719,242 147.333,245 150,245 C153.167,245 155.51,242 158.333,242 C161.385,242 164,245 166.667,245 C169.833,245 172.177,242 175,242 C178.052,242 180.667,245 183.333,245 C186.5,245 188.844,242 191.667,242 C194.719,242 197.333,245 200,245 C203.167,245 205.51,242 208.333,242 C211.385,242 214,245 216.667,245 C219.833,245 222.177,242 225,242 C228.052,242 230.667,245 233.333,245 C236.5,245 238.844,242 241.667,242 C244.719,242 247.333,245 250,245 C253.167,245 255.51,242 258.333,242 C261.385,242 264,245 266.667,245 C269.833,245 272.177,242 275,242 C278.052,242 280.667,245 283.333,245 C286.5,245 288.844,242 291.667,242 C294.719,242 297.333,245 300,245 C303.167,245 305.51,242 308.333,242 C311.385,242 314,245 316.667,245 C319.833,245 322.177,242 325,242 C328.052,242 330.667,245 333.333,245 C336.5,245 338.844,242 341.667,242 C344.719,242 347.333,245 350,245 C353.167,245 355.51,242 358.333,242 C361.385,242 364,245 366.667,245 C369.833,245 372.177,242 375,242 C378.052,242 380.667,245 383.333,245 C386.5,245 388.844,242 391.667,242 C394.719,242 397.333,245 400,245" id="Stroke-1-Copy-22"></path>
                        <path d="M0,256 C3.167,256 5.51,253 8.333,253 C11.385,253 14,256 16.667,256 C19.833,256 22.177,253 25,253 C28.052,253 30.667,256 33.333,256 C36.5,256 38.844,253 41.667,253 C44.719,253 47.333,256 50,256 C53.167,256 55.51,253 58.333,253 C61.385,253 64,256 66.667,256 C69.833,256 72.177,253 75,253 C78.052,253 80.667,256 83.333,256 C86.5,256 88.844,253 91.667,253 C94.719,253 97.333,256 100,256 C103.167,256 105.51,253 108.333,253 C111.385,253 114,256 116.667,256 C119.833,256 122.177,253 125,253 C128.052,253 130.667,256 133.333,256 C136.5,256 138.844,253 141.667,253 C144.719,253 147.333,256 150,256 C153.167,256 155.51,253 158.333,253 C161.385,253 164,256 166.667,256 C169.833,256 172.177,253 175,253 C178.052,253 180.667,256 183.333,256 C186.5,256 188.844,253 191.667,253 C194.719,253 197.333,256 200,256 C203.167,256 205.51,253 208.333,253 C211.385,253 214,256 216.667,256 C219.833,256 222.177,253 225,253 C228.052,253 230.667,256 233.333,256 C236.5,256 238.844,253 241.667,253 C244.719,253 247.333,256 250,256 C253.167,256 255.51,253 258.333,253 C261.385,253 264,256 266.667,256 C269.833,256 272.177,253 275,253 C278.052,253 280.667,256 283.333,256 C286.5,256 288.844,253 291.667,253 C294.719,253 297.333,256 300,256 C303.167,256 305.51,253 308.333,253 C311.385,253 314,256 316.667,256 C319.833,256 322.177,253 325,253 C328.052,253 330.667,256 333.333,256 C336.5,256 338.844,253 341.667,253 C344.719,253 347.333,256 350,256 C353.167,256 355.51,253 358.333,253 C361.385,253 364,256 366.667,256 C369.833,256 372.177,253 375,253 C378.052,253 380.667,256 383.333,256 C386.5,256 388.844,253 391.667,253 C394.719,253 397.333,256 400,256" id="Stroke-1-Copy-23"></path>
                        <path d="M0,267 C3.167,267 5.51,264 8.333,264 C11.385,264 14,267 16.667,267 C19.833,267 22.177,264 25,264 C28.052,264 30.667,267 33.333,267 C36.5,267 38.844,264 41.667,264 C44.719,264 47.333,267 50,267 C53.167,267 55.51,264 58.333,264 C61.385,264 64,267 66.667,267 C69.833,267 72.177,264 75,264 C78.052,264 80.667,267 83.333,267 C86.5,267 88.844,264 91.667,264 C94.719,264 97.333,267 100,267 C103.167,267 105.51,264 108.333,264 C111.385,264 114,267 116.667,267 C119.833,267 122.177,264 125,264 C128.052,264 130.667,267 133.333,267 C136.5,267 138.844,264 141.667,264 C144.719,264 147.333,267 150,267 C153.167,267 155.51,264 158.333,264 C161.385,264 164,267 166.667,267 C169.833,267 172.177,264 175,264 C178.052,264 180.667,267 183.333,267 C186.5,267 188.844,264 191.667,264 C194.719,264 197.333,267 200,267 C203.167,267 205.51,264 208.333,264 C211.385,264 214,267 216.667,267 C219.833,267 222.177,264 225,264 C228.052,264 230.667,267 233.333,267 C236.5,267 238.844,264 241.667,264 C244.719,264 247.333,267 250,267 C253.167,267 255.51,264 258.333,264 C261.385,264 264,267 266.667,267 C269.833,267 272.177,264 275,264 C278.052,264 280.667,267 283.333,267 C286.5,267 288.844,264 291.667,264 C294.719,264 297.333,267 300,267 C303.167,267 305.51,264 308.333,264 C311.385,264 314,267 316.667,267 C319.833,267 322.177,264 325,264 C328.052,264 330.667,267 333.333,267 C336.5,267 338.844,264 341.667,264 C344.719,264 347.333,267 350,267 C353.167,267 355.51,264 358.333,264 C361.385,264 364,267 366.667,267 C369.833,267 372.177,264 375,264 C378.052,264 380.667,267 383.333,267 C386.5,267 388.844,264 391.667,264 C394.719,264 397.333,267 400,267" id="Stroke-1-Copy-24"></path>
                        <path d="M0,278 C3.167,278 5.51,275 8.333,275 C11.385,275 14,278 16.667,278 C19.833,278 22.177,275 25,275 C28.052,275 30.667,278 33.333,278 C36.5,278 38.844,275 41.667,275 C44.719,275 47.333,278 50,278 C53.167,278 55.51,275 58.333,275 C61.385,275 64,278 66.667,278 C69.833,278 72.177,275 75,275 C78.052,275 80.667,278 83.333,278 C86.5,278 88.844,275 91.667,275 C94.719,275 97.333,278 100,278 C103.167,278 105.51,275 108.333,275 C111.385,275 114,278 116.667,278 C119.833,278 122.177,275 125,275 C128.052,275 130.667,278 133.333,278 C136.5,278 138.844,275 141.667,275 C144.719,275 147.333,278 150,278 C153.167,278 155.51,275 158.333,275 C161.385,275 164,278 166.667,278 C169.833,278 172.177,275 175,275 C178.052,275 180.667,278 183.333,278 C186.5,278 188.844,275 191.667,275 C194.719,275 197.333,278 200,278 C203.167,278 205.51,275 208.333,275 C211.385,275 214,278 216.667,278 C219.833,278 222.177,275 225,275 C228.052,275 230.667,278 233.333,278 C236.5,278 238.844,275 241.667,275 C244.719,275 247.333,278 250,278 C253.167,278 255.51,275 258.333,275 C261.385,275 264,278 266.667,278 C269.833,278 272.177,275 275,275 C278.052,275 280.667,278 283.333,278 C286.5,278 288.844,275 291.667,275 C294.719,275 297.333,278 300,278 C303.167,278 305.51,275 308.333,275 C311.385,275 314,278 316.667,278 C319.833,278 322.177,275 325,275 C328.052,275 330.667,278 333.333,278 C336.5,278 338.844,275 341.667,275 C344.719,275 347.333,278 350,278 C353.167,278 355.51,275 358.333,275 C361.385,275 364,278 366.667,278 C369.833,278 372.177,275 375,275 C378.052,275 380.667,278 383.333,278 C386.5,278 388.844,275 391.667,275 C394.719,275 397.333,278 400,278" id="Stroke-1-Copy-25"></path>
                        <path d="M0,289 C3.167,289 5.51,286 8.333,286 C11.385,286 14,289 16.667,289 C19.833,289 22.177,286 25,286 C28.052,286 30.667,289 33.333,289 C36.5,289 38.844,286 41.667,286 C44.719,286 47.333,289 50,289 C53.167,289 55.51,286 58.333,286 C61.385,286 64,289 66.667,289 C69.833,289 72.177,286 75,286 C78.052,286 80.667,289 83.333,289 C86.5,289 88.844,286 91.667,286 C94.719,286 97.333,289 100,289 C103.167,289 105.51,286 108.333,286 C111.385,286 114,289 116.667,289 C119.833,289 122.177,286 125,286 C128.052,286 130.667,289 133.333,289 C136.5,289 138.844,286 141.667,286 C144.719,286 147.333,289 150,289 C153.167,289 155.51,286 158.333,286 C161.385,286 164,289 166.667,289 C169.833,289 172.177,286 175,286 C178.052,286 180.667,289 183.333,289 C186.5,289 188.844,286 191.667,286 C194.719,286 197.333,289 200,289 C203.167,289 205.51,286 208.333,286 C211.385,286 214,289 216.667,289 C219.833,289 222.177,286 225,286 C228.052,286 230.667,289 233.333,289 C236.5,289 238.844,286 241.667,286 C244.719,286 247.333,289 250,289 C253.167,289 255.51,286 258.333,286 C261.385,286 264,289 266.667,289 C269.833,289 272.177,286 275,286 C278.052,286 280.667,289 283.333,289 C286.5,289 288.844,286 291.667,286 C294.719,286 297.333,289 300,289 C303.167,289 305.51,286 308.333,286 C311.385,286 314,289 316.667,289 C319.833,289 322.177,286 325,286 C328.052,286 330.667,289 333.333,289 C336.5,289 338.844,286 341.667,286 C344.719,286 347.333,289 350,289 C353.167,289 355.51,286 358.333,286 C361.385,286 364,289 366.667,289 C369.833,289 372.177,286 375,286 C378.052,286 380.667,289 383.333,289 C386.5,289 388.844,286 391.667,286 C394.719,286 397.333,289 400,289" id="Stroke-1-Copy-26"></path>
                        <path d="M0,300 C3.167,300 5.51,297 8.333,297 C11.385,297 14,300 16.667,300 C19.833,300 22.177,297 25,297 C28.052,297 30.667,300 33.333,300 C36.5,300 38.844,297 41.667,297 C44.719,297 47.333,300 50,300 C53.167,300 55.51,297 58.333,297 C61.385,297 64,300 66.667,300 C69.833,300 72.177,297 75,297 C78.052,297 80.667,300 83.333,300 C86.5,300 88.844,297 91.667,297 C94.719,297 97.333,300 100,300 C103.167,300 105.51,297 108.333,297 C111.385,297 114,300 116.667,300 C119.833,300 122.177,297 125,297 C128.052,297 130.667,300 133.333,300 C136.5,300 138.844,297 141.667,297 C144.719,297 147.333,300 150,300 C153.167,300 155.51,297 158.333,297 C161.385,297 164,300 166.667,300 C169.833,300 172.177,297 175,297 C178.052,297 180.667,300 183.333,300 C186.5,300 188.844,297 191.667,297 C194.719,297 197.333,300 200,300 C203.167,300 205.51,297 208.333,297 C211.385,297 214,300 216.667,300 C219.833,300 222.177,297 225,297 C228.052,297 230.667,300 233.333,300 C236.5,300 238.844,297 241.667,297 C244.719,297 247.333,300 250,300 C253.167,300 255.51,297 258.333,297 C261.385,297 264,300 266.667,300 C269.833,300 272.177,297 275,297 C278.052,297 280.667,300 283.333,300 C286.5,300 288.844,297 291.667,297 C294.719,297 297.333,300 300,300 C303.167,300 305.51,297 308.333,297 C311.385,297 314,300 316.667,300 C319.833,300 322.177,297 325,297 C328.052,297 330.667,300 333.333,300 C336.5,300 338.844,297 341.667,297 C344.719,297 347.333,300 350,300 C353.167,300 355.51,297 358.333,297 C361.385,297 364,300 366.667,300 C369.833,300 372.177,297 375,297 C378.052,297 380.667,300 383.333,300 C386.5,300 388.844,297 391.667,297 C394.719,297 397.333,300 400,300" id="Stroke-1-Copy-27"></path>
                    </g>
                </g>
            </g>
        </g>
    </g>
</svg>